%TF.GenerationSoftware,KiCad,Pcbnew,(5.1.6)-1*%
%TF.CreationDate,2020-08-23T14:00:48-07:00*%
%TF.ProjectId,Led Driver Double,4c656420-4472-4697-9665-7220446f7562,rev?*%
%TF.SameCoordinates,Original*%
%TF.FileFunction,Paste,Top*%
%TF.FilePolarity,Positive*%
%FSLAX46Y46*%
G04 Gerber Fmt 4.6, Leading zero omitted, Abs format (unit mm)*
G04 Created by KiCad (PCBNEW (5.1.6)-1) date 2020-08-23 14:00:48*
%MOMM*%
%LPD*%
G01*
G04 APERTURE LIST*
%ADD10R,1.200000X0.900000*%
%ADD11R,5.400000X2.900000*%
%ADD12R,0.900000X1.700000*%
%ADD13C,0.100000*%
%ADD14R,0.700000X1.500000*%
%ADD15R,1.000000X1.500000*%
%ADD16R,2.000000X0.800000*%
%ADD17R,2.500000X1.950000*%
G04 APERTURE END LIST*
D10*
%TO.C,D1*%
X86730000Y-34050000D03*
X86730000Y-30750000D03*
%TD*%
D11*
%TO.C,L1*%
X78170000Y-32740000D03*
X78170000Y-22840000D03*
%TD*%
D12*
%TO.C,R1*%
X92270000Y-27970000D03*
X89370000Y-27970000D03*
%TD*%
D10*
%TO.C,D2*%
X86970000Y-48200000D03*
X86970000Y-44900000D03*
%TD*%
D11*
%TO.C,L2*%
X78180000Y-36730000D03*
X78180000Y-46630000D03*
%TD*%
D12*
%TO.C,R2*%
X92150000Y-41970000D03*
X89250000Y-41970000D03*
%TD*%
D13*
%TO.C,U1*%
G36*
X89830000Y-31520000D02*
G01*
X90330000Y-30770000D01*
X91330000Y-30770000D01*
X91830000Y-31520000D01*
X89830000Y-31520000D01*
G37*
D14*
X89330000Y-30070000D03*
X92330000Y-30070000D03*
X89330000Y-33770000D03*
D15*
X90830000Y-33770000D03*
D14*
X92330000Y-33770000D03*
D15*
X90830000Y-30070000D03*
D13*
G36*
X91830000Y-32320000D02*
G01*
X91330000Y-33070000D01*
X90330000Y-33070000D01*
X89830000Y-32320000D01*
X91830000Y-32320000D01*
G37*
D16*
X90830000Y-31920000D03*
%TD*%
%TO.C,U2*%
X90840000Y-46040000D03*
D13*
G36*
X91840000Y-46440000D02*
G01*
X91340000Y-47190000D01*
X90340000Y-47190000D01*
X89840000Y-46440000D01*
X91840000Y-46440000D01*
G37*
D15*
X90840000Y-44190000D03*
D14*
X92340000Y-47890000D03*
D15*
X90840000Y-47890000D03*
D14*
X89340000Y-47890000D03*
X92340000Y-44190000D03*
X89340000Y-44190000D03*
D13*
G36*
X89840000Y-45640000D02*
G01*
X90340000Y-44890000D01*
X91340000Y-44890000D01*
X91840000Y-45640000D01*
X89840000Y-45640000D01*
G37*
%TD*%
D17*
%TO.C,C1*%
X86530000Y-25665000D03*
X86530000Y-28715000D03*
%TD*%
%TO.C,C2*%
X86530000Y-42845000D03*
X86530000Y-39795000D03*
%TD*%
M02*
