%TF.GenerationSoftware,KiCad,Pcbnew,(5.1.6)-1*%
%TF.CreationDate,2020-08-23T14:00:49-07:00*%
%TF.ProjectId,Led Driver Double,4c656420-4472-4697-9665-7220446f7562,rev?*%
%TF.SameCoordinates,Original*%
%TF.FileFunction,Legend,Top*%
%TF.FilePolarity,Positive*%
%FSLAX46Y46*%
G04 Gerber Fmt 4.6, Leading zero omitted, Abs format (unit mm)*
G04 Created by KiCad (PCBNEW (5.1.6)-1) date 2020-08-23 14:00:49*
%MOMM*%
%LPD*%
G01*
G04 APERTURE LIST*
%ADD10C,0.150000*%
%ADD11C,0.120000*%
%ADD12C,0.125000*%
G04 APERTURE END LIST*
D10*
X90616666Y-52203333D02*
X89916666Y-52203333D01*
X89916666Y-51936666D01*
X89950000Y-51870000D01*
X89983333Y-51836666D01*
X90050000Y-51803333D01*
X90150000Y-51803333D01*
X90216666Y-51836666D01*
X90250000Y-51870000D01*
X90283333Y-51936666D01*
X90283333Y-52203333D01*
X89916666Y-51570000D02*
X90616666Y-51403333D01*
X90116666Y-51270000D01*
X90616666Y-51136666D01*
X89916666Y-50970000D01*
X90616666Y-50703333D02*
X89916666Y-50703333D01*
X90416666Y-50470000D01*
X89916666Y-50236666D01*
X90616666Y-50236666D01*
X91750000Y-52553333D02*
X91783333Y-52586666D01*
X91816666Y-52686666D01*
X91816666Y-52753333D01*
X91783333Y-52853333D01*
X91716666Y-52920000D01*
X91650000Y-52953333D01*
X91516666Y-52986666D01*
X91416666Y-52986666D01*
X91283333Y-52953333D01*
X91216666Y-52920000D01*
X91150000Y-52853333D01*
X91116666Y-52753333D01*
X91116666Y-52686666D01*
X91150000Y-52586666D01*
X91183333Y-52553333D01*
X91816666Y-52153333D02*
X91783333Y-52220000D01*
X91750000Y-52253333D01*
X91683333Y-52286666D01*
X91483333Y-52286666D01*
X91416666Y-52253333D01*
X91383333Y-52220000D01*
X91350000Y-52153333D01*
X91350000Y-52053333D01*
X91383333Y-51986666D01*
X91416666Y-51953333D01*
X91483333Y-51920000D01*
X91683333Y-51920000D01*
X91750000Y-51953333D01*
X91783333Y-51986666D01*
X91816666Y-52053333D01*
X91816666Y-52153333D01*
X91350000Y-51620000D02*
X91816666Y-51620000D01*
X91416666Y-51620000D02*
X91383333Y-51586666D01*
X91350000Y-51520000D01*
X91350000Y-51420000D01*
X91383333Y-51353333D01*
X91450000Y-51320000D01*
X91816666Y-51320000D01*
X91350000Y-51086666D02*
X91350000Y-50820000D01*
X91116666Y-50986666D02*
X91716666Y-50986666D01*
X91783333Y-50953333D01*
X91816666Y-50886666D01*
X91816666Y-50820000D01*
X91816666Y-50586666D02*
X91350000Y-50586666D01*
X91483333Y-50586666D02*
X91416666Y-50553333D01*
X91383333Y-50520000D01*
X91350000Y-50453333D01*
X91350000Y-50386666D01*
X91816666Y-50053333D02*
X91783333Y-50120000D01*
X91750000Y-50153333D01*
X91683333Y-50186666D01*
X91483333Y-50186666D01*
X91416666Y-50153333D01*
X91383333Y-50120000D01*
X91350000Y-50053333D01*
X91350000Y-49953333D01*
X91383333Y-49886666D01*
X91416666Y-49853333D01*
X91483333Y-49820000D01*
X91683333Y-49820000D01*
X91750000Y-49853333D01*
X91783333Y-49886666D01*
X91816666Y-49953333D01*
X91816666Y-50053333D01*
X91816666Y-49420000D02*
X91783333Y-49486666D01*
X91716666Y-49520000D01*
X91116666Y-49520000D01*
X72692380Y-52420476D02*
X72692380Y-52991904D01*
X72692380Y-52706190D02*
X71692380Y-52706190D01*
X71835238Y-52801428D01*
X71930476Y-52896666D01*
X71978095Y-52991904D01*
X71787619Y-52039523D02*
X71740000Y-51991904D01*
X71692380Y-51896666D01*
X71692380Y-51658571D01*
X71740000Y-51563333D01*
X71787619Y-51515714D01*
X71882857Y-51468095D01*
X71978095Y-51468095D01*
X72120952Y-51515714D01*
X72692380Y-52087142D01*
X72692380Y-51468095D01*
X71692380Y-51182380D02*
X72692380Y-50849047D01*
X71692380Y-50515714D01*
X72692380Y-49420476D02*
X72025714Y-49420476D01*
X71692380Y-49420476D02*
X71740000Y-49468095D01*
X71787619Y-49420476D01*
X71740000Y-49372857D01*
X71692380Y-49420476D01*
X71787619Y-49420476D01*
X72025714Y-48944285D02*
X72692380Y-48944285D01*
X72120952Y-48944285D02*
X72073333Y-48896666D01*
X72025714Y-48801428D01*
X72025714Y-48658571D01*
X72073333Y-48563333D01*
X72168571Y-48515714D01*
X72692380Y-48515714D01*
X82188067Y-52816308D02*
X82949972Y-52816308D01*
X86731007Y-49331388D02*
X87492912Y-49331388D01*
X85229747Y-35720328D02*
X85991652Y-35720328D01*
X85229747Y-21757948D02*
X85991652Y-21757948D01*
X92409047Y-23231428D02*
X93170952Y-23231428D01*
X92790000Y-23612380D02*
X92790000Y-22850476D01*
X92509047Y-37461428D02*
X93270952Y-37461428D01*
X92890000Y-37842380D02*
X92890000Y-37080476D01*
X87532840Y-52445993D02*
X87566173Y-52412660D01*
X87632840Y-52379326D01*
X87799506Y-52379326D01*
X87866173Y-52412660D01*
X87899506Y-52445993D01*
X87932840Y-52512660D01*
X87932840Y-52579326D01*
X87899506Y-52679326D01*
X87499506Y-53079326D01*
X87932840Y-53079326D01*
X85339500Y-53079326D02*
X84939500Y-53079326D01*
X85139500Y-53079326D02*
X85139500Y-52379326D01*
X85072833Y-52479326D01*
X85006166Y-52545993D01*
X84939500Y-52579326D01*
X77179187Y-52745188D02*
X77941092Y-52745188D01*
X74562987Y-52722328D02*
X75324892Y-52722328D01*
X74943940Y-53103280D02*
X74943940Y-52341376D01*
D11*
%TO.C,J5*%
X78562120Y-52403560D02*
X73657120Y-52403560D01*
X73657120Y-52403560D02*
X73657120Y-49773560D01*
X81412120Y-49743560D02*
X89017120Y-49743560D01*
X81412120Y-52403560D02*
X89017120Y-52403560D01*
X89017120Y-52403560D02*
X89017120Y-49743560D01*
X81412120Y-52403560D02*
X81412120Y-49743560D01*
X78562120Y-52403560D02*
X78562120Y-49773560D01*
X78562120Y-49773560D02*
X73657120Y-49773560D01*
%TO.C,D1*%
X87730000Y-30150000D02*
X85730000Y-30150000D01*
X85730000Y-30150000D02*
X85730000Y-34050000D01*
X87730000Y-30150000D02*
X87730000Y-34050000D01*
%TO.C,J1*%
X92780000Y-23870000D02*
X92780000Y-21210000D01*
X90180000Y-23870000D02*
X92780000Y-23870000D01*
X90180000Y-21210000D02*
X92780000Y-21210000D01*
X90180000Y-23870000D02*
X90180000Y-21210000D01*
X88910000Y-23870000D02*
X87580000Y-23870000D01*
X87580000Y-23870000D02*
X87580000Y-22540000D01*
%TO.C,L1*%
X74870000Y-34090000D02*
X71870000Y-34090000D01*
X71870000Y-34090000D02*
X71870000Y-21490000D01*
X71870000Y-21490000D02*
X74870000Y-21490000D01*
X81470000Y-21490000D02*
X84470000Y-21490000D01*
X84470000Y-21490000D02*
X84470000Y-34090000D01*
X84470000Y-34090000D02*
X81470000Y-34090000D01*
%TO.C,R1*%
X91820000Y-29040000D02*
X89820000Y-29040000D01*
X89820000Y-26900000D02*
X91820000Y-26900000D01*
%TO.C,D2*%
X87970000Y-44300000D02*
X85970000Y-44300000D01*
X85970000Y-44300000D02*
X85970000Y-48200000D01*
X87970000Y-44300000D02*
X87970000Y-48200000D01*
%TO.C,J2*%
X92890000Y-38000000D02*
X92890000Y-35340000D01*
X90290000Y-38000000D02*
X92890000Y-38000000D01*
X90290000Y-35340000D02*
X92890000Y-35340000D01*
X90290000Y-38000000D02*
X90290000Y-35340000D01*
X89020000Y-38000000D02*
X87690000Y-38000000D01*
X87690000Y-38000000D02*
X87690000Y-36670000D01*
%TO.C,L2*%
X84480000Y-47980000D02*
X81480000Y-47980000D01*
X84480000Y-35380000D02*
X84480000Y-47980000D01*
X81480000Y-35380000D02*
X84480000Y-35380000D01*
X71880000Y-35380000D02*
X74880000Y-35380000D01*
X71880000Y-47980000D02*
X71880000Y-35380000D01*
X74880000Y-47980000D02*
X71880000Y-47980000D01*
%TO.C,R2*%
X91700000Y-43040000D02*
X89700000Y-43040000D01*
X89700000Y-40900000D02*
X91700000Y-40900000D01*
%TO.C,U1*%
X88430000Y-34520000D02*
X88430000Y-30620000D01*
X93230000Y-30620000D02*
X93230000Y-33220000D01*
%TO.C,U2*%
X93240000Y-44740000D02*
X93240000Y-47340000D01*
X88440000Y-48640000D02*
X88440000Y-44740000D01*
%TO.C,C1*%
X84880000Y-29990000D02*
X88180000Y-29990000D01*
X88180000Y-29990000D02*
X88180000Y-25440000D01*
X84880000Y-29990000D02*
X84880000Y-25440000D01*
%TO.C,C2*%
X84880000Y-44120000D02*
X84880000Y-39570000D01*
X88180000Y-44120000D02*
X88180000Y-39570000D01*
X84880000Y-44120000D02*
X88180000Y-44120000D01*
%TO.C,D1*%
D10*
X87182380Y-33068095D02*
X86182380Y-33068095D01*
X86182380Y-32830000D01*
X86230000Y-32687142D01*
X86325238Y-32591904D01*
X86420476Y-32544285D01*
X86610952Y-32496666D01*
X86753809Y-32496666D01*
X86944285Y-32544285D01*
X87039523Y-32591904D01*
X87134761Y-32687142D01*
X87182380Y-32830000D01*
X87182380Y-33068095D01*
X87182380Y-31544285D02*
X87182380Y-32115714D01*
X87182380Y-31830000D02*
X86182380Y-31830000D01*
X86325238Y-31925238D01*
X86420476Y-32020476D01*
X86468095Y-32115714D01*
%TO.C,J1*%
X85836666Y-22142380D02*
X85836666Y-22856666D01*
X85789047Y-22999523D01*
X85693809Y-23094761D01*
X85550952Y-23142380D01*
X85455714Y-23142380D01*
X86836666Y-23142380D02*
X86265238Y-23142380D01*
X86550952Y-23142380D02*
X86550952Y-22142380D01*
X86455714Y-22285238D01*
X86360476Y-22380476D01*
X86265238Y-22428095D01*
%TO.C,L1*%
X80682380Y-27906666D02*
X80682380Y-28382857D01*
X79682380Y-28382857D01*
X80682380Y-27049523D02*
X80682380Y-27620952D01*
X80682380Y-27335238D02*
X79682380Y-27335238D01*
X79825238Y-27430476D01*
X79920476Y-27525714D01*
X79968095Y-27620952D01*
%TO.C,R1*%
X90623333Y-28442380D02*
X90290000Y-27966190D01*
X90051904Y-28442380D02*
X90051904Y-27442380D01*
X90432857Y-27442380D01*
X90528095Y-27490000D01*
X90575714Y-27537619D01*
X90623333Y-27632857D01*
X90623333Y-27775714D01*
X90575714Y-27870952D01*
X90528095Y-27918571D01*
X90432857Y-27966190D01*
X90051904Y-27966190D01*
X91575714Y-28442380D02*
X91004285Y-28442380D01*
X91290000Y-28442380D02*
X91290000Y-27442380D01*
X91194761Y-27585238D01*
X91099523Y-27680476D01*
X91004285Y-27728095D01*
%TO.C,D2*%
X87512380Y-47198095D02*
X86512380Y-47198095D01*
X86512380Y-46960000D01*
X86560000Y-46817142D01*
X86655238Y-46721904D01*
X86750476Y-46674285D01*
X86940952Y-46626666D01*
X87083809Y-46626666D01*
X87274285Y-46674285D01*
X87369523Y-46721904D01*
X87464761Y-46817142D01*
X87512380Y-46960000D01*
X87512380Y-47198095D01*
X86607619Y-46245714D02*
X86560000Y-46198095D01*
X86512380Y-46102857D01*
X86512380Y-45864761D01*
X86560000Y-45769523D01*
X86607619Y-45721904D01*
X86702857Y-45674285D01*
X86798095Y-45674285D01*
X86940952Y-45721904D01*
X87512380Y-46293333D01*
X87512380Y-45674285D01*
%TO.C,J2*%
X85806666Y-36212380D02*
X85806666Y-36926666D01*
X85759047Y-37069523D01*
X85663809Y-37164761D01*
X85520952Y-37212380D01*
X85425714Y-37212380D01*
X86235238Y-36307619D02*
X86282857Y-36260000D01*
X86378095Y-36212380D01*
X86616190Y-36212380D01*
X86711428Y-36260000D01*
X86759047Y-36307619D01*
X86806666Y-36402857D01*
X86806666Y-36498095D01*
X86759047Y-36640952D01*
X86187619Y-37212380D01*
X86806666Y-37212380D01*
%TO.C,L2*%
X80772380Y-41976666D02*
X80772380Y-42452857D01*
X79772380Y-42452857D01*
X79867619Y-41690952D02*
X79820000Y-41643333D01*
X79772380Y-41548095D01*
X79772380Y-41310000D01*
X79820000Y-41214761D01*
X79867619Y-41167142D01*
X79962857Y-41119523D01*
X80058095Y-41119523D01*
X80200952Y-41167142D01*
X80772380Y-41738571D01*
X80772380Y-41119523D01*
%TO.C,R2*%
X90473333Y-42512380D02*
X90140000Y-42036190D01*
X89901904Y-42512380D02*
X89901904Y-41512380D01*
X90282857Y-41512380D01*
X90378095Y-41560000D01*
X90425714Y-41607619D01*
X90473333Y-41702857D01*
X90473333Y-41845714D01*
X90425714Y-41940952D01*
X90378095Y-41988571D01*
X90282857Y-42036190D01*
X89901904Y-42036190D01*
X90854285Y-41607619D02*
X90901904Y-41560000D01*
X90997142Y-41512380D01*
X91235238Y-41512380D01*
X91330476Y-41560000D01*
X91378095Y-41607619D01*
X91425714Y-41702857D01*
X91425714Y-41798095D01*
X91378095Y-41940952D01*
X90806666Y-42512380D01*
X91425714Y-42512380D01*
%TO.C,U1*%
X92196666Y-32493333D02*
X92763333Y-32493333D01*
X92830000Y-32460000D01*
X92863333Y-32426666D01*
X92896666Y-32360000D01*
X92896666Y-32226666D01*
X92863333Y-32160000D01*
X92830000Y-32126666D01*
X92763333Y-32093333D01*
X92196666Y-32093333D01*
X92896666Y-31393333D02*
X92896666Y-31793333D01*
X92896666Y-31593333D02*
X92196666Y-31593333D01*
X92296666Y-31660000D01*
X92363333Y-31726666D01*
X92396666Y-31793333D01*
%TO.C,U2*%
X92166666Y-46593333D02*
X92733333Y-46593333D01*
X92800000Y-46560000D01*
X92833333Y-46526666D01*
X92866666Y-46460000D01*
X92866666Y-46326666D01*
X92833333Y-46260000D01*
X92800000Y-46226666D01*
X92733333Y-46193333D01*
X92166666Y-46193333D01*
X92233333Y-45893333D02*
X92200000Y-45860000D01*
X92166666Y-45793333D01*
X92166666Y-45626666D01*
X92200000Y-45560000D01*
X92233333Y-45526666D01*
X92300000Y-45493333D01*
X92366666Y-45493333D01*
X92466666Y-45526666D01*
X92866666Y-45926666D01*
X92866666Y-45493333D01*
%TO.C,C1*%
D12*
X86456666Y-27428571D02*
X86432857Y-27452380D01*
X86361428Y-27476190D01*
X86313809Y-27476190D01*
X86242380Y-27452380D01*
X86194761Y-27404761D01*
X86170952Y-27357142D01*
X86147142Y-27261904D01*
X86147142Y-27190476D01*
X86170952Y-27095238D01*
X86194761Y-27047619D01*
X86242380Y-27000000D01*
X86313809Y-26976190D01*
X86361428Y-26976190D01*
X86432857Y-27000000D01*
X86456666Y-27023809D01*
X86932857Y-27476190D02*
X86647142Y-27476190D01*
X86790000Y-27476190D02*
X86790000Y-26976190D01*
X86742380Y-27047619D01*
X86694761Y-27095238D01*
X86647142Y-27119047D01*
%TO.C,C2*%
X86516666Y-41498571D02*
X86492857Y-41522380D01*
X86421428Y-41546190D01*
X86373809Y-41546190D01*
X86302380Y-41522380D01*
X86254761Y-41474761D01*
X86230952Y-41427142D01*
X86207142Y-41331904D01*
X86207142Y-41260476D01*
X86230952Y-41165238D01*
X86254761Y-41117619D01*
X86302380Y-41070000D01*
X86373809Y-41046190D01*
X86421428Y-41046190D01*
X86492857Y-41070000D01*
X86516666Y-41093809D01*
X86707142Y-41093809D02*
X86730952Y-41070000D01*
X86778571Y-41046190D01*
X86897619Y-41046190D01*
X86945238Y-41070000D01*
X86969047Y-41093809D01*
X86992857Y-41141428D01*
X86992857Y-41189047D01*
X86969047Y-41260476D01*
X86683333Y-41546190D01*
X86992857Y-41546190D01*
%TD*%
M02*
