M48
; DRILL file {KiCad (5.1.6)-1} date 08/23/20 14:00:43
; FORMAT={-:-/ absolute / inch / decimal}
; #@! TF.CreationDate,2020-08-23T14:00:43-07:00
; #@! TF.GenerationSoftware,Kicad,Pcbnew,(5.1.6)-1
FMAT,2
INCH
T1C0.0157
T2C0.0394
%
G90
G05
T1
X3.0435Y-1.0127
X3.0482Y-1.5676
X3.0791Y-1.0125
X3.0833Y-1.5676
X3.1142Y-1.0125
X3.1184Y-1.5676
X3.4933Y-1.566
X3.4999Y-1.01
X3.5286Y-1.5659
X3.5352Y-1.0099
X3.5567Y-1.237
X3.5567Y-1.2764
X3.5567Y-1.7937
X3.5567Y-1.8331
X3.5636Y-1.5655
X3.5702Y-1.0095
X3.5756Y-1.8134
X3.5762Y-1.2568
X3.5961Y-1.237
X3.5961Y-1.2764
X3.5961Y-1.7937
X3.5961Y-1.8331
T2
X3.5004Y-0.8874
X3.6004Y-0.8874
X3.5047Y-1.4437
X3.6047Y-1.4437
X2.9522Y-2.0108
X3.0522Y-2.0108
X3.1522Y-2.0108
X3.2522Y-2.0108
X3.3522Y-2.0108
X3.4522Y-2.0108
T0
M30
