%TF.GenerationSoftware,KiCad,Pcbnew,(5.1.6)-1*%
%TF.CreationDate,2020-08-23T14:00:49-07:00*%
%TF.ProjectId,Led Driver Double,4c656420-4472-4697-9665-7220446f7562,rev?*%
%TF.SameCoordinates,Original*%
%TF.FileFunction,Legend,Bot*%
%TF.FilePolarity,Positive*%
%FSLAX46Y46*%
G04 Gerber Fmt 4.6, Leading zero omitted, Abs format (unit mm)*
G04 Created by KiCad (PCBNEW (5.1.6)-1) date 2020-08-23 14:00:49*
%MOMM*%
%LPD*%
G01*
G04 APERTURE LIST*
%ADD10C,0.150000*%
G04 APERTURE END LIST*
D10*
X73378571Y-27664761D02*
X73378571Y-27998095D01*
X73902380Y-28140952D02*
X73902380Y-27664761D01*
X72902380Y-27664761D01*
X72902380Y-28140952D01*
X73902380Y-28998095D02*
X73378571Y-28998095D01*
X73283333Y-28950476D01*
X73235714Y-28855238D01*
X73235714Y-28664761D01*
X73283333Y-28569523D01*
X73854761Y-28998095D02*
X73902380Y-28902857D01*
X73902380Y-28664761D01*
X73854761Y-28569523D01*
X73759523Y-28521904D01*
X73664285Y-28521904D01*
X73569047Y-28569523D01*
X73521428Y-28664761D01*
X73521428Y-28902857D01*
X73473809Y-28998095D01*
X73235714Y-29902857D02*
X74045238Y-29902857D01*
X74140476Y-29855238D01*
X74188095Y-29807619D01*
X74235714Y-29712380D01*
X74235714Y-29569523D01*
X74188095Y-29474285D01*
X73854761Y-29902857D02*
X73902380Y-29807619D01*
X73902380Y-29617142D01*
X73854761Y-29521904D01*
X73807142Y-29474285D01*
X73711904Y-29426666D01*
X73426190Y-29426666D01*
X73330952Y-29474285D01*
X73283333Y-29521904D01*
X73235714Y-29617142D01*
X73235714Y-29807619D01*
X73283333Y-29902857D01*
X73902380Y-30521904D02*
X73854761Y-30426666D01*
X73759523Y-30379047D01*
X72902380Y-30379047D01*
X73854761Y-31283809D02*
X73902380Y-31188571D01*
X73902380Y-30998095D01*
X73854761Y-30902857D01*
X73759523Y-30855238D01*
X73378571Y-30855238D01*
X73283333Y-30902857D01*
X73235714Y-30998095D01*
X73235714Y-31188571D01*
X73283333Y-31283809D01*
X73378571Y-31331428D01*
X73473809Y-31331428D01*
X73569047Y-30855238D01*
X73902380Y-32521904D02*
X72902380Y-32521904D01*
X72902380Y-32760000D01*
X72950000Y-32902857D01*
X73045238Y-32998095D01*
X73140476Y-33045714D01*
X73330952Y-33093333D01*
X73473809Y-33093333D01*
X73664285Y-33045714D01*
X73759523Y-32998095D01*
X73854761Y-32902857D01*
X73902380Y-32760000D01*
X73902380Y-32521904D01*
X73854761Y-33902857D02*
X73902380Y-33807619D01*
X73902380Y-33617142D01*
X73854761Y-33521904D01*
X73759523Y-33474285D01*
X73378571Y-33474285D01*
X73283333Y-33521904D01*
X73235714Y-33617142D01*
X73235714Y-33807619D01*
X73283333Y-33902857D01*
X73378571Y-33950476D01*
X73473809Y-33950476D01*
X73569047Y-33474285D01*
X73854761Y-34807619D02*
X73902380Y-34712380D01*
X73902380Y-34521904D01*
X73854761Y-34426666D01*
X73807142Y-34379047D01*
X73711904Y-34331428D01*
X73426190Y-34331428D01*
X73330952Y-34379047D01*
X73283333Y-34426666D01*
X73235714Y-34521904D01*
X73235714Y-34712380D01*
X73283333Y-34807619D01*
X73902380Y-35379047D02*
X73854761Y-35283809D01*
X73807142Y-35236190D01*
X73711904Y-35188571D01*
X73426190Y-35188571D01*
X73330952Y-35236190D01*
X73283333Y-35283809D01*
X73235714Y-35379047D01*
X73235714Y-35521904D01*
X73283333Y-35617142D01*
X73330952Y-35664761D01*
X73426190Y-35712380D01*
X73711904Y-35712380D01*
X73807142Y-35664761D01*
X73854761Y-35617142D01*
X73902380Y-35521904D01*
X73902380Y-35379047D01*
X73902380Y-36140952D02*
X73235714Y-36140952D01*
X73426190Y-36140952D02*
X73330952Y-36188571D01*
X73283333Y-36236190D01*
X73235714Y-36331428D01*
X73235714Y-36426666D01*
X73902380Y-37188571D02*
X73378571Y-37188571D01*
X73283333Y-37140952D01*
X73235714Y-37045714D01*
X73235714Y-36855238D01*
X73283333Y-36760000D01*
X73854761Y-37188571D02*
X73902380Y-37093333D01*
X73902380Y-36855238D01*
X73854761Y-36760000D01*
X73759523Y-36712380D01*
X73664285Y-36712380D01*
X73569047Y-36760000D01*
X73521428Y-36855238D01*
X73521428Y-37093333D01*
X73473809Y-37188571D01*
X73235714Y-37521904D02*
X73235714Y-37902857D01*
X72902380Y-37664761D02*
X73759523Y-37664761D01*
X73854761Y-37712380D01*
X73902380Y-37807619D01*
X73902380Y-37902857D01*
X73902380Y-38236190D02*
X73235714Y-38236190D01*
X72902380Y-38236190D02*
X72950000Y-38188571D01*
X72997619Y-38236190D01*
X72950000Y-38283809D01*
X72902380Y-38236190D01*
X72997619Y-38236190D01*
X73902380Y-38855238D02*
X73854761Y-38760000D01*
X73807142Y-38712380D01*
X73711904Y-38664761D01*
X73426190Y-38664761D01*
X73330952Y-38712380D01*
X73283333Y-38760000D01*
X73235714Y-38855238D01*
X73235714Y-38998095D01*
X73283333Y-39093333D01*
X73330952Y-39140952D01*
X73426190Y-39188571D01*
X73711904Y-39188571D01*
X73807142Y-39140952D01*
X73854761Y-39093333D01*
X73902380Y-38998095D01*
X73902380Y-38855238D01*
X73235714Y-39617142D02*
X73902380Y-39617142D01*
X73330952Y-39617142D02*
X73283333Y-39664761D01*
X73235714Y-39760000D01*
X73235714Y-39902857D01*
X73283333Y-39998095D01*
X73378571Y-40045714D01*
X73902380Y-40045714D01*
X73854761Y-40474285D02*
X73902380Y-40569523D01*
X73902380Y-40760000D01*
X73854761Y-40855238D01*
X73759523Y-40902857D01*
X73711904Y-40902857D01*
X73616666Y-40855238D01*
X73569047Y-40760000D01*
X73569047Y-40617142D01*
X73521428Y-40521904D01*
X73426190Y-40474285D01*
X73378571Y-40474285D01*
X73283333Y-40521904D01*
X73235714Y-40617142D01*
X73235714Y-40760000D01*
X73283333Y-40855238D01*
X74552380Y-22593333D02*
X74552380Y-23164761D01*
X75552380Y-22879047D02*
X74552380Y-22879047D01*
X74885714Y-23402857D02*
X75552380Y-23593333D01*
X75076190Y-23783809D01*
X75552380Y-23974285D01*
X74885714Y-24164761D01*
X75552380Y-24688571D02*
X75504761Y-24593333D01*
X75457142Y-24545714D01*
X75361904Y-24498095D01*
X75076190Y-24498095D01*
X74980952Y-24545714D01*
X74933333Y-24593333D01*
X74885714Y-24688571D01*
X74885714Y-24831428D01*
X74933333Y-24926666D01*
X74980952Y-24974285D01*
X75076190Y-25021904D01*
X75361904Y-25021904D01*
X75457142Y-24974285D01*
X75504761Y-24926666D01*
X75552380Y-24831428D01*
X75552380Y-24688571D01*
X75457142Y-26783809D02*
X75504761Y-26736190D01*
X75552380Y-26593333D01*
X75552380Y-26498095D01*
X75504761Y-26355238D01*
X75409523Y-26260000D01*
X75314285Y-26212380D01*
X75123809Y-26164761D01*
X74980952Y-26164761D01*
X74790476Y-26212380D01*
X74695238Y-26260000D01*
X74600000Y-26355238D01*
X74552380Y-26498095D01*
X74552380Y-26593333D01*
X74600000Y-26736190D01*
X74647619Y-26783809D01*
X75552380Y-27212380D02*
X74552380Y-27212380D01*
X75552380Y-27640952D02*
X75028571Y-27640952D01*
X74933333Y-27593333D01*
X74885714Y-27498095D01*
X74885714Y-27355238D01*
X74933333Y-27260000D01*
X74980952Y-27212380D01*
X75552380Y-28545714D02*
X75028571Y-28545714D01*
X74933333Y-28498095D01*
X74885714Y-28402857D01*
X74885714Y-28212380D01*
X74933333Y-28117142D01*
X75504761Y-28545714D02*
X75552380Y-28450476D01*
X75552380Y-28212380D01*
X75504761Y-28117142D01*
X75409523Y-28069523D01*
X75314285Y-28069523D01*
X75219047Y-28117142D01*
X75171428Y-28212380D01*
X75171428Y-28450476D01*
X75123809Y-28545714D01*
X74885714Y-29021904D02*
X75552380Y-29021904D01*
X74980952Y-29021904D02*
X74933333Y-29069523D01*
X74885714Y-29164761D01*
X74885714Y-29307619D01*
X74933333Y-29402857D01*
X75028571Y-29450476D01*
X75552380Y-29450476D01*
X74885714Y-29926666D02*
X75552380Y-29926666D01*
X74980952Y-29926666D02*
X74933333Y-29974285D01*
X74885714Y-30069523D01*
X74885714Y-30212380D01*
X74933333Y-30307619D01*
X75028571Y-30355238D01*
X75552380Y-30355238D01*
X75504761Y-31212380D02*
X75552380Y-31117142D01*
X75552380Y-30926666D01*
X75504761Y-30831428D01*
X75409523Y-30783809D01*
X75028571Y-30783809D01*
X74933333Y-30831428D01*
X74885714Y-30926666D01*
X74885714Y-31117142D01*
X74933333Y-31212380D01*
X75028571Y-31259999D01*
X75123809Y-31259999D01*
X75219047Y-30783809D01*
X75552380Y-31831428D02*
X75504761Y-31736190D01*
X75409523Y-31688571D01*
X74552380Y-31688571D01*
X75552380Y-33498095D02*
X75552380Y-32926666D01*
X75552380Y-33212380D02*
X74552380Y-33212380D01*
X74695238Y-33117142D01*
X74790476Y-33021904D01*
X74838095Y-32926666D01*
X75266666Y-34640952D02*
X75266666Y-35117142D01*
X75552380Y-34545714D02*
X74552380Y-34879047D01*
X75552380Y-35212380D01*
X75552380Y-35545714D02*
X74552380Y-35545714D01*
X75266666Y-35879047D01*
X74552380Y-36212380D01*
X75552380Y-36212380D01*
X75552380Y-36688571D02*
X74552380Y-36688571D01*
X74552380Y-37069523D01*
X74600000Y-37164761D01*
X74647619Y-37212380D01*
X74742857Y-37259999D01*
X74885714Y-37259999D01*
X74980952Y-37212380D01*
X75028571Y-37164761D01*
X75076190Y-37069523D01*
X75076190Y-36688571D01*
X75552380Y-38926666D02*
X75552380Y-38450476D01*
X74552380Y-38450476D01*
X75028571Y-39259999D02*
X75028571Y-39593333D01*
X75552380Y-39736190D02*
X75552380Y-39259999D01*
X74552380Y-39259999D01*
X74552380Y-39736190D01*
X75552380Y-40164761D02*
X74552380Y-40164761D01*
X74552380Y-40402857D01*
X74600000Y-40545714D01*
X74695238Y-40640952D01*
X74790476Y-40688571D01*
X74980952Y-40736190D01*
X75123809Y-40736190D01*
X75314285Y-40688571D01*
X75409523Y-40640952D01*
X75504761Y-40545714D01*
X75552380Y-40402857D01*
X75552380Y-40164761D01*
X75552380Y-41926666D02*
X74552380Y-41926666D01*
X74552380Y-42164761D01*
X74600000Y-42307619D01*
X74695238Y-42402857D01*
X74790476Y-42450476D01*
X74980952Y-42498095D01*
X75123809Y-42498095D01*
X75314285Y-42450476D01*
X75409523Y-42402857D01*
X75504761Y-42307619D01*
X75552380Y-42164761D01*
X75552380Y-41926666D01*
X75552380Y-42926666D02*
X74885714Y-42926666D01*
X75076190Y-42926666D02*
X74980952Y-42974285D01*
X74933333Y-43021904D01*
X74885714Y-43117142D01*
X74885714Y-43212380D01*
X75552380Y-43545714D02*
X74885714Y-43545714D01*
X74552380Y-43545714D02*
X74600000Y-43498095D01*
X74647619Y-43545714D01*
X74600000Y-43593333D01*
X74552380Y-43545714D01*
X74647619Y-43545714D01*
X74885714Y-43926666D02*
X75552380Y-44164761D01*
X74885714Y-44402857D01*
X75504761Y-45164761D02*
X75552380Y-45069523D01*
X75552380Y-44879047D01*
X75504761Y-44783809D01*
X75409523Y-44736190D01*
X75028571Y-44736190D01*
X74933333Y-44783809D01*
X74885714Y-44879047D01*
X74885714Y-45069523D01*
X74933333Y-45164761D01*
X75028571Y-45212380D01*
X75123809Y-45212380D01*
X75219047Y-44736190D01*
X75552380Y-45640952D02*
X74885714Y-45640952D01*
X75076190Y-45640952D02*
X74980952Y-45688571D01*
X74933333Y-45736190D01*
X74885714Y-45831428D01*
X74885714Y-45926666D01*
X76202380Y-32736190D02*
X77202380Y-33069523D01*
X76202380Y-33402857D01*
X77202380Y-34259999D02*
X77202380Y-33688571D01*
X77202380Y-33974285D02*
X76202380Y-33974285D01*
X76345238Y-33879047D01*
X76440476Y-33783809D01*
X76488095Y-33688571D01*
X77107142Y-34688571D02*
X77154761Y-34736190D01*
X77202380Y-34688571D01*
X77154761Y-34640952D01*
X77107142Y-34688571D01*
X77202380Y-34688571D01*
X76202380Y-35355238D02*
X76202380Y-35450476D01*
X76250000Y-35545714D01*
X76297619Y-35593333D01*
X76392857Y-35640952D01*
X76583333Y-35688571D01*
X76821428Y-35688571D01*
X77011904Y-35640952D01*
X77107142Y-35593333D01*
X77154761Y-35545714D01*
X77202380Y-35450476D01*
X77202380Y-35355238D01*
X77154761Y-35259999D01*
X77107142Y-35212380D01*
X77011904Y-35164761D01*
X76821428Y-35117142D01*
X76583333Y-35117142D01*
X76392857Y-35164761D01*
X76297619Y-35212380D01*
X76250000Y-35259999D01*
X76202380Y-35355238D01*
M02*
