%TF.GenerationSoftware,KiCad,Pcbnew,(5.1.6)-1*%
%TF.CreationDate,2020-08-20T15:31:08-07:00*%
%TF.ProjectId,RGBW Driver,52474257-2044-4726-9976-65722e6b6963,rev?*%
%TF.SameCoordinates,Original*%
%TF.FileFunction,Legend,Bot*%
%TF.FilePolarity,Positive*%
%FSLAX46Y46*%
G04 Gerber Fmt 4.6, Leading zero omitted, Abs format (unit mm)*
G04 Created by KiCad (PCBNEW (5.1.6)-1) date 2020-08-20 15:31:08*
%MOMM*%
%LPD*%
G01*
G04 APERTURE LIST*
%ADD10C,0.150000*%
G04 APERTURE END LIST*
D10*
X74156822Y-37518083D02*
X74156822Y-38184750D01*
X75204441Y-38470464D02*
X75204441Y-37518083D01*
X73204441Y-37518083D01*
X73204441Y-38470464D01*
X75204441Y-40184750D02*
X74156822Y-40184750D01*
X73966346Y-40089512D01*
X73871108Y-39899036D01*
X73871108Y-39518083D01*
X73966346Y-39327607D01*
X75109203Y-40184750D02*
X75204441Y-39994274D01*
X75204441Y-39518083D01*
X75109203Y-39327607D01*
X74918727Y-39232369D01*
X74728251Y-39232369D01*
X74537775Y-39327607D01*
X74442537Y-39518083D01*
X74442537Y-39994274D01*
X74347299Y-40184750D01*
X73871108Y-41994274D02*
X75490156Y-41994274D01*
X75680632Y-41899036D01*
X75775870Y-41803798D01*
X75871108Y-41613321D01*
X75871108Y-41327607D01*
X75775870Y-41137131D01*
X75109203Y-41994274D02*
X75204441Y-41803798D01*
X75204441Y-41422845D01*
X75109203Y-41232369D01*
X75013965Y-41137131D01*
X74823489Y-41041893D01*
X74252060Y-41041893D01*
X74061584Y-41137131D01*
X73966346Y-41232369D01*
X73871108Y-41422845D01*
X73871108Y-41803798D01*
X73966346Y-41994274D01*
X75204441Y-43232369D02*
X75109203Y-43041893D01*
X74918727Y-42946655D01*
X73204441Y-42946655D01*
X75109203Y-44756179D02*
X75204441Y-44565702D01*
X75204441Y-44184750D01*
X75109203Y-43994274D01*
X74918727Y-43899036D01*
X74156822Y-43899036D01*
X73966346Y-43994274D01*
X73871108Y-44184750D01*
X73871108Y-44565702D01*
X73966346Y-44756179D01*
X74156822Y-44851417D01*
X74347299Y-44851417D01*
X74537775Y-43899036D01*
X75204441Y-47232369D02*
X73204441Y-47232369D01*
X73204441Y-47708560D01*
X73299680Y-47994274D01*
X73490156Y-48184750D01*
X73680632Y-48279988D01*
X74061584Y-48375226D01*
X74347299Y-48375226D01*
X74728251Y-48279988D01*
X74918727Y-48184750D01*
X75109203Y-47994274D01*
X75204441Y-47708560D01*
X75204441Y-47232369D01*
X75109203Y-49994274D02*
X75204441Y-49803798D01*
X75204441Y-49422845D01*
X75109203Y-49232369D01*
X74918727Y-49137131D01*
X74156822Y-49137131D01*
X73966346Y-49232369D01*
X73871108Y-49422845D01*
X73871108Y-49803798D01*
X73966346Y-49994274D01*
X74156822Y-50089512D01*
X74347299Y-50089512D01*
X74537775Y-49137131D01*
X75109203Y-51803798D02*
X75204441Y-51613321D01*
X75204441Y-51232369D01*
X75109203Y-51041893D01*
X75013965Y-50946655D01*
X74823489Y-50851417D01*
X74252060Y-50851417D01*
X74061584Y-50946655D01*
X73966346Y-51041893D01*
X73871108Y-51232369D01*
X73871108Y-51613321D01*
X73966346Y-51803798D01*
X75204441Y-52946655D02*
X75109203Y-52756179D01*
X75013965Y-52660940D01*
X74823489Y-52565702D01*
X74252060Y-52565702D01*
X74061584Y-52660940D01*
X73966346Y-52756179D01*
X73871108Y-52946655D01*
X73871108Y-53232369D01*
X73966346Y-53422845D01*
X74061584Y-53518083D01*
X74252060Y-53613321D01*
X74823489Y-53613321D01*
X75013965Y-53518083D01*
X75109203Y-53422845D01*
X75204441Y-53232369D01*
X75204441Y-52946655D01*
X75204441Y-54470464D02*
X73871108Y-54470464D01*
X74252060Y-54470464D02*
X74061584Y-54565702D01*
X73966346Y-54660940D01*
X73871108Y-54851417D01*
X73871108Y-55041893D01*
X75204441Y-56565702D02*
X74156822Y-56565702D01*
X73966346Y-56470464D01*
X73871108Y-56279988D01*
X73871108Y-55899036D01*
X73966346Y-55708560D01*
X75109203Y-56565702D02*
X75204441Y-56375226D01*
X75204441Y-55899036D01*
X75109203Y-55708560D01*
X74918727Y-55613321D01*
X74728251Y-55613321D01*
X74537775Y-55708560D01*
X74442537Y-55899036D01*
X74442537Y-56375226D01*
X74347299Y-56565702D01*
X73871108Y-57232369D02*
X73871108Y-57994274D01*
X73204441Y-57518083D02*
X74918727Y-57518083D01*
X75109203Y-57613321D01*
X75204441Y-57803798D01*
X75204441Y-57994274D01*
X75204441Y-58660940D02*
X73871108Y-58660940D01*
X73204441Y-58660940D02*
X73299680Y-58565702D01*
X73394918Y-58660940D01*
X73299680Y-58756179D01*
X73204441Y-58660940D01*
X73394918Y-58660940D01*
X75204441Y-59899036D02*
X75109203Y-59708560D01*
X75013965Y-59613321D01*
X74823489Y-59518083D01*
X74252060Y-59518083D01*
X74061584Y-59613321D01*
X73966346Y-59708560D01*
X73871108Y-59899036D01*
X73871108Y-60184750D01*
X73966346Y-60375226D01*
X74061584Y-60470464D01*
X74252060Y-60565702D01*
X74823489Y-60565702D01*
X75013965Y-60470464D01*
X75109203Y-60375226D01*
X75204441Y-60184750D01*
X75204441Y-59899036D01*
X73871108Y-61422845D02*
X75204441Y-61422845D01*
X74061584Y-61422845D02*
X73966346Y-61518083D01*
X73871108Y-61708560D01*
X73871108Y-61994274D01*
X73966346Y-62184750D01*
X74156822Y-62279988D01*
X75204441Y-62279988D01*
X75109203Y-63137131D02*
X75204441Y-63327607D01*
X75204441Y-63708560D01*
X75109203Y-63899036D01*
X74918727Y-63994274D01*
X74823489Y-63994274D01*
X74633013Y-63899036D01*
X74537775Y-63708560D01*
X74537775Y-63422845D01*
X74442537Y-63232369D01*
X74252060Y-63137131D01*
X74156822Y-63137131D01*
X73966346Y-63232369D01*
X73871108Y-63422845D01*
X73871108Y-63708560D01*
X73966346Y-63899036D01*
X78354441Y-34137131D02*
X77402060Y-33470464D01*
X78354441Y-32994274D02*
X76354441Y-32994274D01*
X76354441Y-33756179D01*
X76449680Y-33946655D01*
X76544918Y-34041893D01*
X76735394Y-34137131D01*
X77021108Y-34137131D01*
X77211584Y-34041893D01*
X77306822Y-33946655D01*
X77402060Y-33756179D01*
X77402060Y-32994274D01*
X76449680Y-36041893D02*
X76354441Y-35851417D01*
X76354441Y-35565702D01*
X76449680Y-35279988D01*
X76640156Y-35089512D01*
X76830632Y-34994274D01*
X77211584Y-34899036D01*
X77497299Y-34899036D01*
X77878251Y-34994274D01*
X78068727Y-35089512D01*
X78259203Y-35279988D01*
X78354441Y-35565702D01*
X78354441Y-35756179D01*
X78259203Y-36041893D01*
X78163965Y-36137131D01*
X77497299Y-36137131D01*
X77497299Y-35756179D01*
X77306822Y-37660940D02*
X77402060Y-37946655D01*
X77497299Y-38041893D01*
X77687775Y-38137131D01*
X77973489Y-38137131D01*
X78163965Y-38041893D01*
X78259203Y-37946655D01*
X78354441Y-37756179D01*
X78354441Y-36994274D01*
X76354441Y-36994274D01*
X76354441Y-37660940D01*
X76449680Y-37851417D01*
X76544918Y-37946655D01*
X76735394Y-38041893D01*
X76925870Y-38041893D01*
X77116346Y-37946655D01*
X77211584Y-37851417D01*
X77306822Y-37660940D01*
X77306822Y-36994274D01*
X76354441Y-38803798D02*
X78354441Y-39279988D01*
X76925870Y-39660940D01*
X78354441Y-40041893D01*
X76354441Y-40518083D01*
X78354441Y-43851417D02*
X78354441Y-42708560D01*
X78354441Y-43279988D02*
X76354441Y-43279988D01*
X76640156Y-43089512D01*
X76830632Y-42899036D01*
X76925870Y-42708560D01*
X77783013Y-46137131D02*
X77783013Y-47089512D01*
X78354441Y-45946655D02*
X76354441Y-46613321D01*
X78354441Y-47279988D01*
X78354441Y-47946655D02*
X76354441Y-47946655D01*
X77783013Y-48613321D01*
X76354441Y-49279988D01*
X78354441Y-49279988D01*
X78354441Y-50232369D02*
X76354441Y-50232369D01*
X76354441Y-50994274D01*
X76449680Y-51184750D01*
X76544918Y-51279988D01*
X76735394Y-51375226D01*
X77021108Y-51375226D01*
X77211584Y-51279988D01*
X77306822Y-51184750D01*
X77402060Y-50994274D01*
X77402060Y-50232369D01*
X78354441Y-54708559D02*
X78354441Y-53756179D01*
X76354441Y-53756179D01*
X77306822Y-55375226D02*
X77306822Y-56041893D01*
X78354441Y-56327607D02*
X78354441Y-55375226D01*
X76354441Y-55375226D01*
X76354441Y-56327607D01*
X78354441Y-57184750D02*
X76354441Y-57184750D01*
X76354441Y-57660940D01*
X76449680Y-57946655D01*
X76640156Y-58137131D01*
X76830632Y-58232369D01*
X77211584Y-58327607D01*
X77497299Y-58327607D01*
X77878251Y-58232369D01*
X78068727Y-58137131D01*
X78259203Y-57946655D01*
X78354441Y-57660940D01*
X78354441Y-57184750D01*
X78354441Y-60708559D02*
X76354441Y-60708559D01*
X76354441Y-61184750D01*
X76449680Y-61470464D01*
X76640156Y-61660940D01*
X76830632Y-61756179D01*
X77211584Y-61851417D01*
X77497299Y-61851417D01*
X77878251Y-61756179D01*
X78068727Y-61660940D01*
X78259203Y-61470464D01*
X78354441Y-61184750D01*
X78354441Y-60708559D01*
X78354441Y-62708559D02*
X77021108Y-62708559D01*
X77402060Y-62708559D02*
X77211584Y-62803798D01*
X77116346Y-62899036D01*
X77021108Y-63089512D01*
X77021108Y-63279988D01*
X78354441Y-63946655D02*
X77021108Y-63946655D01*
X76354441Y-63946655D02*
X76449680Y-63851417D01*
X76544918Y-63946655D01*
X76449680Y-64041893D01*
X76354441Y-63946655D01*
X76544918Y-63946655D01*
X77021108Y-64708559D02*
X78354441Y-65184750D01*
X77021108Y-65660940D01*
X78259203Y-67184750D02*
X78354441Y-66994274D01*
X78354441Y-66613321D01*
X78259203Y-66422845D01*
X78068727Y-66327607D01*
X77306822Y-66327607D01*
X77116346Y-66422845D01*
X77021108Y-66613321D01*
X77021108Y-66994274D01*
X77116346Y-67184750D01*
X77306822Y-67279988D01*
X77497299Y-67279988D01*
X77687775Y-66327607D01*
X78354441Y-68137131D02*
X77021108Y-68137131D01*
X77402060Y-68137131D02*
X77211584Y-68232369D01*
X77116346Y-68327607D01*
X77021108Y-68518083D01*
X77021108Y-68708560D01*
X79504441Y-47660940D02*
X81504441Y-48327607D01*
X79504441Y-48994274D01*
X81504441Y-50708560D02*
X81504441Y-49565702D01*
X81504441Y-50137131D02*
X79504441Y-50137131D01*
X79790156Y-49946655D01*
X79980632Y-49756179D01*
X80075870Y-49565702D01*
X81313965Y-51565702D02*
X81409203Y-51660940D01*
X81504441Y-51565702D01*
X81409203Y-51470464D01*
X81313965Y-51565702D01*
X81504441Y-51565702D01*
X79504441Y-52899036D02*
X79504441Y-53089512D01*
X79599680Y-53279988D01*
X79694918Y-53375226D01*
X79885394Y-53470464D01*
X80266346Y-53565702D01*
X80742537Y-53565702D01*
X81123489Y-53470464D01*
X81313965Y-53375226D01*
X81409203Y-53279988D01*
X81504441Y-53089512D01*
X81504441Y-52899036D01*
X81409203Y-52708560D01*
X81313965Y-52613321D01*
X81123489Y-52518083D01*
X80742537Y-52422845D01*
X80266346Y-52422845D01*
X79885394Y-52518083D01*
X79694918Y-52613321D01*
X79599680Y-52708560D01*
X79504441Y-52899036D01*
M02*
