%TF.GenerationSoftware,KiCad,Pcbnew,(5.1.6)-1*%
%TF.CreationDate,2020-08-20T15:31:08-07:00*%
%TF.ProjectId,RGBW Driver,52474257-2044-4726-9976-65722e6b6963,rev?*%
%TF.SameCoordinates,Original*%
%TF.FileFunction,Legend,Top*%
%TF.FilePolarity,Positive*%
%FSLAX46Y46*%
G04 Gerber Fmt 4.6, Leading zero omitted, Abs format (unit mm)*
G04 Created by KiCad (PCBNEW (5.1.6)-1) date 2020-08-20 15:31:08*
%MOMM*%
%LPD*%
G01*
G04 APERTURE LIST*
%ADD10C,0.150000*%
%ADD11C,0.120000*%
G04 APERTURE END LIST*
D10*
X80678067Y-79756308D02*
X81439972Y-79756308D01*
X85176407Y-63215828D02*
X85938312Y-63215828D01*
X85151007Y-49281388D02*
X85912912Y-49281388D01*
X85229747Y-35720328D02*
X85991652Y-35720328D01*
X85229747Y-21757948D02*
X85991652Y-21757948D01*
X92384927Y-22819668D02*
X93146832Y-22819668D01*
X92765880Y-23200620D02*
X92765880Y-22438716D01*
X92384927Y-36936988D02*
X93146832Y-36936988D01*
X92765880Y-37317940D02*
X92765880Y-36556036D01*
X92438267Y-50569168D02*
X93200172Y-50569168D01*
X92819220Y-50950120D02*
X92819220Y-50188216D01*
X92438267Y-64506148D02*
X93200172Y-64506148D01*
X92819220Y-64887100D02*
X92819220Y-64125196D01*
X91408233Y-79484080D02*
X91408233Y-79950746D01*
X91241566Y-79217413D02*
X91074900Y-79717413D01*
X91508233Y-79717413D01*
X88493946Y-79296466D02*
X88927280Y-79296466D01*
X88693946Y-79563133D01*
X88793946Y-79563133D01*
X88860613Y-79596466D01*
X88893946Y-79629800D01*
X88927280Y-79696466D01*
X88927280Y-79863133D01*
X88893946Y-79929800D01*
X88860613Y-79963133D01*
X88793946Y-79996466D01*
X88593946Y-79996466D01*
X88527280Y-79963133D01*
X88493946Y-79929800D01*
X86022840Y-79385993D02*
X86056173Y-79352660D01*
X86122840Y-79319326D01*
X86289506Y-79319326D01*
X86356173Y-79352660D01*
X86389506Y-79385993D01*
X86422840Y-79452660D01*
X86422840Y-79519326D01*
X86389506Y-79619326D01*
X85989506Y-80019326D01*
X86422840Y-80019326D01*
X83829500Y-80019326D02*
X83429500Y-80019326D01*
X83629500Y-80019326D02*
X83629500Y-79319326D01*
X83562833Y-79419326D01*
X83496166Y-79485993D01*
X83429500Y-79519326D01*
X75669187Y-79685188D02*
X76431092Y-79685188D01*
X73052987Y-79662328D02*
X73814892Y-79662328D01*
X73433940Y-80043280D02*
X73433940Y-79281376D01*
D11*
%TO.C,J5*%
X92587120Y-79343560D02*
X92587120Y-76683560D01*
X79977120Y-79343560D02*
X92587120Y-79343560D01*
X79977120Y-76683560D02*
X92587120Y-76683560D01*
X79977120Y-79348560D02*
X79977120Y-76688560D01*
X77302120Y-79343560D02*
X72147120Y-79343560D01*
X72147120Y-79343560D02*
X72147120Y-76713560D01*
X77302120Y-79348560D02*
X77302120Y-76688560D01*
X77302120Y-76713560D02*
X72147120Y-76713560D01*
%TO.C,C1*%
X84910000Y-26390000D02*
X84910000Y-28390000D01*
X87870000Y-28390000D02*
X87870000Y-26390000D01*
%TO.C,D1*%
X87730000Y-30150000D02*
X85730000Y-30150000D01*
X85730000Y-30150000D02*
X85730000Y-34050000D01*
X87730000Y-30150000D02*
X87730000Y-34050000D01*
%TO.C,J1*%
X92230000Y-24240000D02*
X92230000Y-21580000D01*
X89630000Y-24240000D02*
X92230000Y-24240000D01*
X89630000Y-21580000D02*
X92230000Y-21580000D01*
X89630000Y-24240000D02*
X89630000Y-21580000D01*
X88360000Y-24240000D02*
X87030000Y-24240000D01*
X87030000Y-24240000D02*
X87030000Y-22910000D01*
%TO.C,L1*%
X74880000Y-34240000D02*
X71880000Y-34240000D01*
X71880000Y-34240000D02*
X71880000Y-21640000D01*
X71880000Y-21640000D02*
X74880000Y-21640000D01*
X81480000Y-21640000D02*
X84480000Y-21640000D01*
X84480000Y-21640000D02*
X84480000Y-34240000D01*
X84480000Y-34240000D02*
X81480000Y-34240000D01*
%TO.C,R1*%
X91500000Y-28950000D02*
X89500000Y-28950000D01*
X89500000Y-26810000D02*
X91500000Y-26810000D01*
%TO.C,C2*%
X84890000Y-40170000D02*
X84890000Y-42170000D01*
X87850000Y-42170000D02*
X87850000Y-40170000D01*
%TO.C,C3*%
X84890000Y-54090000D02*
X84890000Y-56090000D01*
X87850000Y-56090000D02*
X87850000Y-54090000D01*
%TO.C,C4*%
X87870000Y-69790000D02*
X87870000Y-67790000D01*
X84910000Y-67790000D02*
X84910000Y-69790000D01*
%TO.C,D2*%
X87690000Y-43750000D02*
X85690000Y-43750000D01*
X85690000Y-43750000D02*
X85690000Y-47650000D01*
X87690000Y-43750000D02*
X87690000Y-47650000D01*
%TO.C,D3*%
X87710000Y-57550000D02*
X87710000Y-61450000D01*
X85710000Y-57550000D02*
X85710000Y-61450000D01*
X87710000Y-57550000D02*
X85710000Y-57550000D01*
%TO.C,D4*%
X87690000Y-71250000D02*
X85690000Y-71250000D01*
X85690000Y-71250000D02*
X85690000Y-75150000D01*
X87690000Y-71250000D02*
X87690000Y-75150000D01*
%TO.C,J2*%
X92210000Y-38350000D02*
X92210000Y-35690000D01*
X89610000Y-38350000D02*
X92210000Y-38350000D01*
X89610000Y-35690000D02*
X92210000Y-35690000D01*
X89610000Y-38350000D02*
X89610000Y-35690000D01*
X88340000Y-38350000D02*
X87010000Y-38350000D01*
X87010000Y-38350000D02*
X87010000Y-37020000D01*
%TO.C,J3*%
X92230000Y-51900000D02*
X92230000Y-49240000D01*
X89630000Y-51900000D02*
X92230000Y-51900000D01*
X89630000Y-49240000D02*
X92230000Y-49240000D01*
X89630000Y-51900000D02*
X89630000Y-49240000D01*
X88360000Y-51900000D02*
X87030000Y-51900000D01*
X87030000Y-51900000D02*
X87030000Y-50570000D01*
%TO.C,J4*%
X86990000Y-65920000D02*
X86990000Y-64590000D01*
X88320000Y-65920000D02*
X86990000Y-65920000D01*
X89590000Y-65920000D02*
X89590000Y-63260000D01*
X89590000Y-63260000D02*
X92190000Y-63260000D01*
X89590000Y-65920000D02*
X92190000Y-65920000D01*
X92190000Y-65920000D02*
X92190000Y-63260000D01*
%TO.C,L2*%
X84480000Y-47980000D02*
X81480000Y-47980000D01*
X84480000Y-35380000D02*
X84480000Y-47980000D01*
X81480000Y-35380000D02*
X84480000Y-35380000D01*
X71880000Y-35380000D02*
X74880000Y-35380000D01*
X71880000Y-47980000D02*
X71880000Y-35380000D01*
X74880000Y-47980000D02*
X71880000Y-47980000D01*
%TO.C,L3*%
X74880000Y-61730000D02*
X71880000Y-61730000D01*
X71880000Y-61730000D02*
X71880000Y-49130000D01*
X71880000Y-49130000D02*
X74880000Y-49130000D01*
X81480000Y-49130000D02*
X84480000Y-49130000D01*
X84480000Y-49130000D02*
X84480000Y-61730000D01*
X84480000Y-61730000D02*
X81480000Y-61730000D01*
%TO.C,L4*%
X74890000Y-75480000D02*
X71890000Y-75480000D01*
X71890000Y-75480000D02*
X71890000Y-62880000D01*
X71890000Y-62880000D02*
X74890000Y-62880000D01*
X81490000Y-62880000D02*
X84490000Y-62880000D01*
X84490000Y-62880000D02*
X84490000Y-75480000D01*
X84490000Y-75480000D02*
X81490000Y-75480000D01*
%TO.C,R2*%
X91420000Y-42490000D02*
X89420000Y-42490000D01*
X89420000Y-40350000D02*
X91420000Y-40350000D01*
%TO.C,R3*%
X89500000Y-54130000D02*
X91500000Y-54130000D01*
X91500000Y-56270000D02*
X89500000Y-56270000D01*
%TO.C,R4*%
X91660000Y-70000000D02*
X89660000Y-70000000D01*
X89660000Y-67860000D02*
X91660000Y-67860000D01*
%TO.C,U1*%
X88160000Y-34500000D02*
X88160000Y-30600000D01*
X92960000Y-30600000D02*
X92960000Y-33200000D01*
%TO.C,U2*%
X92960000Y-44190000D02*
X92960000Y-46790000D01*
X88160000Y-48090000D02*
X88160000Y-44190000D01*
%TO.C,U3*%
X92960000Y-57970000D02*
X92960000Y-60570000D01*
X88160000Y-61870000D02*
X88160000Y-57970000D01*
%TO.C,U4*%
X88160000Y-75610000D02*
X88160000Y-71710000D01*
X92960000Y-71710000D02*
X92960000Y-74310000D01*
%TO.C,J5*%
D10*
X70599500Y-78346893D02*
X71313786Y-78346893D01*
X71456643Y-78394512D01*
X71551881Y-78489750D01*
X71599500Y-78632607D01*
X71599500Y-78727845D01*
X70599500Y-77394512D02*
X70599500Y-77870702D01*
X71075691Y-77918321D01*
X71028072Y-77870702D01*
X70980453Y-77775464D01*
X70980453Y-77537369D01*
X71028072Y-77442131D01*
X71075691Y-77394512D01*
X71170929Y-77346893D01*
X71409024Y-77346893D01*
X71504262Y-77394512D01*
X71551881Y-77442131D01*
X71599500Y-77537369D01*
X71599500Y-77775464D01*
X71551881Y-77870702D01*
X71504262Y-77918321D01*
%TO.C,C1*%
X84497142Y-27556666D02*
X84544761Y-27604285D01*
X84592380Y-27747142D01*
X84592380Y-27842380D01*
X84544761Y-27985238D01*
X84449523Y-28080476D01*
X84354285Y-28128095D01*
X84163809Y-28175714D01*
X84020952Y-28175714D01*
X83830476Y-28128095D01*
X83735238Y-28080476D01*
X83640000Y-27985238D01*
X83592380Y-27842380D01*
X83592380Y-27747142D01*
X83640000Y-27604285D01*
X83687619Y-27556666D01*
X84592380Y-26604285D02*
X84592380Y-27175714D01*
X84592380Y-26890000D02*
X83592380Y-26890000D01*
X83735238Y-26985238D01*
X83830476Y-27080476D01*
X83878095Y-27175714D01*
%TO.C,D1*%
X89182380Y-33138095D02*
X88182380Y-33138095D01*
X88182380Y-32900000D01*
X88230000Y-32757142D01*
X88325238Y-32661904D01*
X88420476Y-32614285D01*
X88610952Y-32566666D01*
X88753809Y-32566666D01*
X88944285Y-32614285D01*
X89039523Y-32661904D01*
X89134761Y-32757142D01*
X89182380Y-32900000D01*
X89182380Y-33138095D01*
X89182380Y-31614285D02*
X89182380Y-32185714D01*
X89182380Y-31900000D02*
X88182380Y-31900000D01*
X88325238Y-31995238D01*
X88420476Y-32090476D01*
X88468095Y-32185714D01*
%TO.C,J1*%
X85482380Y-23243333D02*
X86196666Y-23243333D01*
X86339523Y-23290952D01*
X86434761Y-23386190D01*
X86482380Y-23529047D01*
X86482380Y-23624285D01*
X86482380Y-22243333D02*
X86482380Y-22814761D01*
X86482380Y-22529047D02*
X85482380Y-22529047D01*
X85625238Y-22624285D01*
X85720476Y-22719523D01*
X85768095Y-22814761D01*
%TO.C,L1*%
X85732380Y-28106666D02*
X85732380Y-28582857D01*
X84732380Y-28582857D01*
X85732380Y-27249523D02*
X85732380Y-27820952D01*
X85732380Y-27535238D02*
X84732380Y-27535238D01*
X84875238Y-27630476D01*
X84970476Y-27725714D01*
X85018095Y-27820952D01*
%TO.C,R1*%
X90333333Y-26482380D02*
X90000000Y-26006190D01*
X89761904Y-26482380D02*
X89761904Y-25482380D01*
X90142857Y-25482380D01*
X90238095Y-25530000D01*
X90285714Y-25577619D01*
X90333333Y-25672857D01*
X90333333Y-25815714D01*
X90285714Y-25910952D01*
X90238095Y-25958571D01*
X90142857Y-26006190D01*
X89761904Y-26006190D01*
X91285714Y-26482380D02*
X90714285Y-26482380D01*
X91000000Y-26482380D02*
X91000000Y-25482380D01*
X90904761Y-25625238D01*
X90809523Y-25720476D01*
X90714285Y-25768095D01*
%TO.C,C2*%
X84477142Y-41336666D02*
X84524761Y-41384285D01*
X84572380Y-41527142D01*
X84572380Y-41622380D01*
X84524761Y-41765238D01*
X84429523Y-41860476D01*
X84334285Y-41908095D01*
X84143809Y-41955714D01*
X84000952Y-41955714D01*
X83810476Y-41908095D01*
X83715238Y-41860476D01*
X83620000Y-41765238D01*
X83572380Y-41622380D01*
X83572380Y-41527142D01*
X83620000Y-41384285D01*
X83667619Y-41336666D01*
X83667619Y-40955714D02*
X83620000Y-40908095D01*
X83572380Y-40812857D01*
X83572380Y-40574761D01*
X83620000Y-40479523D01*
X83667619Y-40431904D01*
X83762857Y-40384285D01*
X83858095Y-40384285D01*
X84000952Y-40431904D01*
X84572380Y-41003333D01*
X84572380Y-40384285D01*
%TO.C,C3*%
X84477142Y-55256666D02*
X84524761Y-55304285D01*
X84572380Y-55447142D01*
X84572380Y-55542380D01*
X84524761Y-55685238D01*
X84429523Y-55780476D01*
X84334285Y-55828095D01*
X84143809Y-55875714D01*
X84000952Y-55875714D01*
X83810476Y-55828095D01*
X83715238Y-55780476D01*
X83620000Y-55685238D01*
X83572380Y-55542380D01*
X83572380Y-55447142D01*
X83620000Y-55304285D01*
X83667619Y-55256666D01*
X83572380Y-54923333D02*
X83572380Y-54304285D01*
X83953333Y-54637619D01*
X83953333Y-54494761D01*
X84000952Y-54399523D01*
X84048571Y-54351904D01*
X84143809Y-54304285D01*
X84381904Y-54304285D01*
X84477142Y-54351904D01*
X84524761Y-54399523D01*
X84572380Y-54494761D01*
X84572380Y-54780476D01*
X84524761Y-54875714D01*
X84477142Y-54923333D01*
%TO.C,C4*%
X84497142Y-68956666D02*
X84544761Y-69004285D01*
X84592380Y-69147142D01*
X84592380Y-69242380D01*
X84544761Y-69385238D01*
X84449523Y-69480476D01*
X84354285Y-69528095D01*
X84163809Y-69575714D01*
X84020952Y-69575714D01*
X83830476Y-69528095D01*
X83735238Y-69480476D01*
X83640000Y-69385238D01*
X83592380Y-69242380D01*
X83592380Y-69147142D01*
X83640000Y-69004285D01*
X83687619Y-68956666D01*
X83925714Y-68099523D02*
X84592380Y-68099523D01*
X83544761Y-68337619D02*
X84259047Y-68575714D01*
X84259047Y-67956666D01*
%TO.C,D2*%
X89142380Y-46738095D02*
X88142380Y-46738095D01*
X88142380Y-46500000D01*
X88190000Y-46357142D01*
X88285238Y-46261904D01*
X88380476Y-46214285D01*
X88570952Y-46166666D01*
X88713809Y-46166666D01*
X88904285Y-46214285D01*
X88999523Y-46261904D01*
X89094761Y-46357142D01*
X89142380Y-46500000D01*
X89142380Y-46738095D01*
X88237619Y-45785714D02*
X88190000Y-45738095D01*
X88142380Y-45642857D01*
X88142380Y-45404761D01*
X88190000Y-45309523D01*
X88237619Y-45261904D01*
X88332857Y-45214285D01*
X88428095Y-45214285D01*
X88570952Y-45261904D01*
X89142380Y-45833333D01*
X89142380Y-45214285D01*
%TO.C,D3*%
X89162380Y-60538095D02*
X88162380Y-60538095D01*
X88162380Y-60300000D01*
X88210000Y-60157142D01*
X88305238Y-60061904D01*
X88400476Y-60014285D01*
X88590952Y-59966666D01*
X88733809Y-59966666D01*
X88924285Y-60014285D01*
X89019523Y-60061904D01*
X89114761Y-60157142D01*
X89162380Y-60300000D01*
X89162380Y-60538095D01*
X88162380Y-59633333D02*
X88162380Y-59014285D01*
X88543333Y-59347619D01*
X88543333Y-59204761D01*
X88590952Y-59109523D01*
X88638571Y-59061904D01*
X88733809Y-59014285D01*
X88971904Y-59014285D01*
X89067142Y-59061904D01*
X89114761Y-59109523D01*
X89162380Y-59204761D01*
X89162380Y-59490476D01*
X89114761Y-59585714D01*
X89067142Y-59633333D01*
%TO.C,D4*%
X89142380Y-74238095D02*
X88142380Y-74238095D01*
X88142380Y-74000000D01*
X88190000Y-73857142D01*
X88285238Y-73761904D01*
X88380476Y-73714285D01*
X88570952Y-73666666D01*
X88713809Y-73666666D01*
X88904285Y-73714285D01*
X88999523Y-73761904D01*
X89094761Y-73857142D01*
X89142380Y-74000000D01*
X89142380Y-74238095D01*
X88475714Y-72809523D02*
X89142380Y-72809523D01*
X88094761Y-73047619D02*
X88809047Y-73285714D01*
X88809047Y-72666666D01*
%TO.C,J2*%
X85462380Y-37353333D02*
X86176666Y-37353333D01*
X86319523Y-37400952D01*
X86414761Y-37496190D01*
X86462380Y-37639047D01*
X86462380Y-37734285D01*
X85557619Y-36924761D02*
X85510000Y-36877142D01*
X85462380Y-36781904D01*
X85462380Y-36543809D01*
X85510000Y-36448571D01*
X85557619Y-36400952D01*
X85652857Y-36353333D01*
X85748095Y-36353333D01*
X85890952Y-36400952D01*
X86462380Y-36972380D01*
X86462380Y-36353333D01*
%TO.C,J3*%
X85482380Y-50903333D02*
X86196666Y-50903333D01*
X86339523Y-50950952D01*
X86434761Y-51046190D01*
X86482380Y-51189047D01*
X86482380Y-51284285D01*
X85482380Y-50522380D02*
X85482380Y-49903333D01*
X85863333Y-50236666D01*
X85863333Y-50093809D01*
X85910952Y-49998571D01*
X85958571Y-49950952D01*
X86053809Y-49903333D01*
X86291904Y-49903333D01*
X86387142Y-49950952D01*
X86434761Y-49998571D01*
X86482380Y-50093809D01*
X86482380Y-50379523D01*
X86434761Y-50474761D01*
X86387142Y-50522380D01*
%TO.C,J4*%
X85442380Y-64923333D02*
X86156666Y-64923333D01*
X86299523Y-64970952D01*
X86394761Y-65066190D01*
X86442380Y-65209047D01*
X86442380Y-65304285D01*
X85775714Y-64018571D02*
X86442380Y-64018571D01*
X85394761Y-64256666D02*
X86109047Y-64494761D01*
X86109047Y-63875714D01*
%TO.C,L2*%
X85732380Y-41846666D02*
X85732380Y-42322857D01*
X84732380Y-42322857D01*
X84827619Y-41560952D02*
X84780000Y-41513333D01*
X84732380Y-41418095D01*
X84732380Y-41180000D01*
X84780000Y-41084761D01*
X84827619Y-41037142D01*
X84922857Y-40989523D01*
X85018095Y-40989523D01*
X85160952Y-41037142D01*
X85732380Y-41608571D01*
X85732380Y-40989523D01*
%TO.C,L3*%
X85732380Y-55596666D02*
X85732380Y-56072857D01*
X84732380Y-56072857D01*
X84732380Y-55358571D02*
X84732380Y-54739523D01*
X85113333Y-55072857D01*
X85113333Y-54930000D01*
X85160952Y-54834761D01*
X85208571Y-54787142D01*
X85303809Y-54739523D01*
X85541904Y-54739523D01*
X85637142Y-54787142D01*
X85684761Y-54834761D01*
X85732380Y-54930000D01*
X85732380Y-55215714D01*
X85684761Y-55310952D01*
X85637142Y-55358571D01*
%TO.C,L4*%
X85742380Y-69346666D02*
X85742380Y-69822857D01*
X84742380Y-69822857D01*
X85075714Y-68584761D02*
X85742380Y-68584761D01*
X84694761Y-68822857D02*
X85409047Y-69060952D01*
X85409047Y-68441904D01*
%TO.C,R2*%
X90253333Y-40022380D02*
X89920000Y-39546190D01*
X89681904Y-40022380D02*
X89681904Y-39022380D01*
X90062857Y-39022380D01*
X90158095Y-39070000D01*
X90205714Y-39117619D01*
X90253333Y-39212857D01*
X90253333Y-39355714D01*
X90205714Y-39450952D01*
X90158095Y-39498571D01*
X90062857Y-39546190D01*
X89681904Y-39546190D01*
X90634285Y-39117619D02*
X90681904Y-39070000D01*
X90777142Y-39022380D01*
X91015238Y-39022380D01*
X91110476Y-39070000D01*
X91158095Y-39117619D01*
X91205714Y-39212857D01*
X91205714Y-39308095D01*
X91158095Y-39450952D01*
X90586666Y-40022380D01*
X91205714Y-40022380D01*
%TO.C,R3*%
X90333333Y-53802380D02*
X90000000Y-53326190D01*
X89761904Y-53802380D02*
X89761904Y-52802380D01*
X90142857Y-52802380D01*
X90238095Y-52850000D01*
X90285714Y-52897619D01*
X90333333Y-52992857D01*
X90333333Y-53135714D01*
X90285714Y-53230952D01*
X90238095Y-53278571D01*
X90142857Y-53326190D01*
X89761904Y-53326190D01*
X90666666Y-52802380D02*
X91285714Y-52802380D01*
X90952380Y-53183333D01*
X91095238Y-53183333D01*
X91190476Y-53230952D01*
X91238095Y-53278571D01*
X91285714Y-53373809D01*
X91285714Y-53611904D01*
X91238095Y-53707142D01*
X91190476Y-53754761D01*
X91095238Y-53802380D01*
X90809523Y-53802380D01*
X90714285Y-53754761D01*
X90666666Y-53707142D01*
%TO.C,R4*%
X90493333Y-67532380D02*
X90160000Y-67056190D01*
X89921904Y-67532380D02*
X89921904Y-66532380D01*
X90302857Y-66532380D01*
X90398095Y-66580000D01*
X90445714Y-66627619D01*
X90493333Y-66722857D01*
X90493333Y-66865714D01*
X90445714Y-66960952D01*
X90398095Y-67008571D01*
X90302857Y-67056190D01*
X89921904Y-67056190D01*
X91350476Y-66865714D02*
X91350476Y-67532380D01*
X91112380Y-66484761D02*
X90874285Y-67199047D01*
X91493333Y-67199047D01*
%TO.C,U1*%
X86487380Y-32936904D02*
X87296904Y-32936904D01*
X87392142Y-32889285D01*
X87439761Y-32841666D01*
X87487380Y-32746428D01*
X87487380Y-32555952D01*
X87439761Y-32460714D01*
X87392142Y-32413095D01*
X87296904Y-32365476D01*
X86487380Y-32365476D01*
X87487380Y-31365476D02*
X87487380Y-31936904D01*
X87487380Y-31651190D02*
X86487380Y-31651190D01*
X86630238Y-31746428D01*
X86725476Y-31841666D01*
X86773095Y-31936904D01*
%TO.C,U2*%
X86487380Y-46526904D02*
X87296904Y-46526904D01*
X87392142Y-46479285D01*
X87439761Y-46431666D01*
X87487380Y-46336428D01*
X87487380Y-46145952D01*
X87439761Y-46050714D01*
X87392142Y-46003095D01*
X87296904Y-45955476D01*
X86487380Y-45955476D01*
X86582619Y-45526904D02*
X86535000Y-45479285D01*
X86487380Y-45384047D01*
X86487380Y-45145952D01*
X86535000Y-45050714D01*
X86582619Y-45003095D01*
X86677857Y-44955476D01*
X86773095Y-44955476D01*
X86915952Y-45003095D01*
X87487380Y-45574523D01*
X87487380Y-44955476D01*
%TO.C,U3*%
X86487380Y-60306904D02*
X87296904Y-60306904D01*
X87392142Y-60259285D01*
X87439761Y-60211666D01*
X87487380Y-60116428D01*
X87487380Y-59925952D01*
X87439761Y-59830714D01*
X87392142Y-59783095D01*
X87296904Y-59735476D01*
X86487380Y-59735476D01*
X86487380Y-59354523D02*
X86487380Y-58735476D01*
X86868333Y-59068809D01*
X86868333Y-58925952D01*
X86915952Y-58830714D01*
X86963571Y-58783095D01*
X87058809Y-58735476D01*
X87296904Y-58735476D01*
X87392142Y-58783095D01*
X87439761Y-58830714D01*
X87487380Y-58925952D01*
X87487380Y-59211666D01*
X87439761Y-59306904D01*
X87392142Y-59354523D01*
%TO.C,U4*%
X86487380Y-74046904D02*
X87296904Y-74046904D01*
X87392142Y-73999285D01*
X87439761Y-73951666D01*
X87487380Y-73856428D01*
X87487380Y-73665952D01*
X87439761Y-73570714D01*
X87392142Y-73523095D01*
X87296904Y-73475476D01*
X86487380Y-73475476D01*
X86820714Y-72570714D02*
X87487380Y-72570714D01*
X86439761Y-72808809D02*
X87154047Y-73046904D01*
X87154047Y-72427857D01*
%TD*%
M02*
