%TF.GenerationSoftware,KiCad,Pcbnew,(5.1.6)-1*%
%TF.CreationDate,2020-08-18T19:37:20-07:00*%
%TF.ProjectId,RGBW Driver,52474257-2044-4726-9976-65722e6b6963,rev?*%
%TF.SameCoordinates,Original*%
%TF.FileFunction,Legend,Top*%
%TF.FilePolarity,Positive*%
%FSLAX46Y46*%
G04 Gerber Fmt 4.6, Leading zero omitted, Abs format (unit mm)*
G04 Created by KiCad (PCBNEW (5.1.6)-1) date 2020-08-18 19:37:20*
%MOMM*%
%LPD*%
G01*
G04 APERTURE LIST*
%ADD10C,0.120000*%
%ADD11C,0.150000*%
%ADD12C,0.015000*%
G04 APERTURE END LIST*
D10*
%TO.C,C1*%
X84980000Y-26390000D02*
X84980000Y-28390000D01*
X87940000Y-28390000D02*
X87940000Y-26390000D01*
%TO.C,D1*%
X87930000Y-30160000D02*
X85930000Y-30160000D01*
X85930000Y-30160000D02*
X85930000Y-34060000D01*
X87930000Y-30160000D02*
X87930000Y-34060000D01*
%TO.C,J5*%
X77240000Y-79250000D02*
X77240000Y-76590000D01*
X74640000Y-79250000D02*
X77240000Y-79250000D01*
X74640000Y-76590000D02*
X77240000Y-76590000D01*
X74640000Y-79250000D02*
X74640000Y-76590000D01*
X73370000Y-79250000D02*
X72040000Y-79250000D01*
X72040000Y-79250000D02*
X72040000Y-77920000D01*
%TO.C,J1*%
X92430000Y-24240000D02*
X92430000Y-21580000D01*
X89830000Y-24240000D02*
X92430000Y-24240000D01*
X89830000Y-21580000D02*
X92430000Y-21580000D01*
X89830000Y-24240000D02*
X89830000Y-21580000D01*
X88560000Y-24240000D02*
X87230000Y-24240000D01*
X87230000Y-24240000D02*
X87230000Y-22910000D01*
%TO.C,L1*%
X74860000Y-34310000D02*
X71860000Y-34310000D01*
X71860000Y-34310000D02*
X71860000Y-21710000D01*
X71860000Y-21710000D02*
X74860000Y-21710000D01*
X81460000Y-21710000D02*
X84460000Y-21710000D01*
X84460000Y-21710000D02*
X84460000Y-34310000D01*
X84460000Y-34310000D02*
X81460000Y-34310000D01*
%TO.C,R1*%
X91750000Y-27330000D02*
X89750000Y-27330000D01*
X89750000Y-25190000D02*
X91750000Y-25190000D01*
%TO.C,C2*%
X85240000Y-40500000D02*
X85240000Y-42500000D01*
X88200000Y-42500000D02*
X88200000Y-40500000D01*
%TO.C,C3*%
X85240000Y-53660000D02*
X85240000Y-55660000D01*
X88200000Y-55660000D02*
X88200000Y-53660000D01*
%TO.C,C4*%
X88120000Y-69470000D02*
X88120000Y-67470000D01*
X85160000Y-67470000D02*
X85160000Y-69470000D01*
%TO.C,D2*%
X87640000Y-43840000D02*
X85640000Y-43840000D01*
X85640000Y-43840000D02*
X85640000Y-47740000D01*
X87640000Y-43840000D02*
X87640000Y-47740000D01*
%TO.C,D3*%
X87720000Y-57350000D02*
X87720000Y-61250000D01*
X85720000Y-57350000D02*
X85720000Y-61250000D01*
X87720000Y-57350000D02*
X85720000Y-57350000D01*
%TO.C,D4*%
X87570000Y-71030000D02*
X85570000Y-71030000D01*
X85570000Y-71030000D02*
X85570000Y-74930000D01*
X87570000Y-71030000D02*
X87570000Y-74930000D01*
%TO.C,J2*%
X92080000Y-38850000D02*
X92080000Y-36190000D01*
X89480000Y-38850000D02*
X92080000Y-38850000D01*
X89480000Y-36190000D02*
X92080000Y-36190000D01*
X89480000Y-38850000D02*
X89480000Y-36190000D01*
X88210000Y-38850000D02*
X86880000Y-38850000D01*
X86880000Y-38850000D02*
X86880000Y-37520000D01*
%TO.C,J3*%
X92150000Y-52290000D02*
X92150000Y-49630000D01*
X89550000Y-52290000D02*
X92150000Y-52290000D01*
X89550000Y-49630000D02*
X92150000Y-49630000D01*
X89550000Y-52290000D02*
X89550000Y-49630000D01*
X88280000Y-52290000D02*
X86950000Y-52290000D01*
X86950000Y-52290000D02*
X86950000Y-50960000D01*
%TO.C,J4*%
X87030000Y-66030000D02*
X87030000Y-64700000D01*
X88360000Y-66030000D02*
X87030000Y-66030000D01*
X89630000Y-66030000D02*
X89630000Y-63370000D01*
X89630000Y-63370000D02*
X92230000Y-63370000D01*
X89630000Y-66030000D02*
X92230000Y-66030000D01*
X92230000Y-66030000D02*
X92230000Y-63370000D01*
%TO.C,J6*%
X92280000Y-79400000D02*
X92280000Y-76740000D01*
X82060000Y-79400000D02*
X92280000Y-79400000D01*
X82060000Y-76740000D02*
X92280000Y-76740000D01*
X82060000Y-79400000D02*
X82060000Y-76740000D01*
X80790000Y-79400000D02*
X79460000Y-79400000D01*
X79460000Y-79400000D02*
X79460000Y-78070000D01*
%TO.C,L2*%
X84470000Y-47990000D02*
X81470000Y-47990000D01*
X84470000Y-35390000D02*
X84470000Y-47990000D01*
X81470000Y-35390000D02*
X84470000Y-35390000D01*
X71870000Y-35390000D02*
X74870000Y-35390000D01*
X71870000Y-47990000D02*
X71870000Y-35390000D01*
X74870000Y-47990000D02*
X71870000Y-47990000D01*
%TO.C,L3*%
X74870000Y-61660000D02*
X71870000Y-61660000D01*
X71870000Y-61660000D02*
X71870000Y-49060000D01*
X71870000Y-49060000D02*
X74870000Y-49060000D01*
X81470000Y-49060000D02*
X84470000Y-49060000D01*
X84470000Y-49060000D02*
X84470000Y-61660000D01*
X84470000Y-61660000D02*
X81470000Y-61660000D01*
%TO.C,L4*%
X74870000Y-75340000D02*
X71870000Y-75340000D01*
X71870000Y-75340000D02*
X71870000Y-62740000D01*
X71870000Y-62740000D02*
X74870000Y-62740000D01*
X81470000Y-62740000D02*
X84470000Y-62740000D01*
X84470000Y-62740000D02*
X84470000Y-75340000D01*
X84470000Y-75340000D02*
X81470000Y-75340000D01*
%TO.C,R2*%
X91370000Y-42050000D02*
X89370000Y-42050000D01*
X89370000Y-39910000D02*
X91370000Y-39910000D01*
%TO.C,R3*%
X89520000Y-53340000D02*
X91520000Y-53340000D01*
X91520000Y-55480000D02*
X89520000Y-55480000D01*
%TO.C,R4*%
X91540000Y-68760000D02*
X89540000Y-68760000D01*
X89540000Y-66620000D02*
X91540000Y-66620000D01*
%TO.C,C1*%
D11*
X84567142Y-27556666D02*
X84614761Y-27604285D01*
X84662380Y-27747142D01*
X84662380Y-27842380D01*
X84614761Y-27985238D01*
X84519523Y-28080476D01*
X84424285Y-28128095D01*
X84233809Y-28175714D01*
X84090952Y-28175714D01*
X83900476Y-28128095D01*
X83805238Y-28080476D01*
X83710000Y-27985238D01*
X83662380Y-27842380D01*
X83662380Y-27747142D01*
X83710000Y-27604285D01*
X83757619Y-27556666D01*
X84662380Y-26604285D02*
X84662380Y-27175714D01*
X84662380Y-26890000D02*
X83662380Y-26890000D01*
X83805238Y-26985238D01*
X83900476Y-27080476D01*
X83948095Y-27175714D01*
%TO.C,D1*%
X89382380Y-33148095D02*
X88382380Y-33148095D01*
X88382380Y-32910000D01*
X88430000Y-32767142D01*
X88525238Y-32671904D01*
X88620476Y-32624285D01*
X88810952Y-32576666D01*
X88953809Y-32576666D01*
X89144285Y-32624285D01*
X89239523Y-32671904D01*
X89334761Y-32767142D01*
X89382380Y-32910000D01*
X89382380Y-33148095D01*
X89382380Y-31624285D02*
X89382380Y-32195714D01*
X89382380Y-31910000D02*
X88382380Y-31910000D01*
X88525238Y-32005238D01*
X88620476Y-32100476D01*
X88668095Y-32195714D01*
%TO.C,J5*%
X70492380Y-78253333D02*
X71206666Y-78253333D01*
X71349523Y-78300952D01*
X71444761Y-78396190D01*
X71492380Y-78539047D01*
X71492380Y-78634285D01*
X70492380Y-77300952D02*
X70492380Y-77777142D01*
X70968571Y-77824761D01*
X70920952Y-77777142D01*
X70873333Y-77681904D01*
X70873333Y-77443809D01*
X70920952Y-77348571D01*
X70968571Y-77300952D01*
X71063809Y-77253333D01*
X71301904Y-77253333D01*
X71397142Y-77300952D01*
X71444761Y-77348571D01*
X71492380Y-77443809D01*
X71492380Y-77681904D01*
X71444761Y-77777142D01*
X71397142Y-77824761D01*
%TO.C,J1*%
X85682380Y-23243333D02*
X86396666Y-23243333D01*
X86539523Y-23290952D01*
X86634761Y-23386190D01*
X86682380Y-23529047D01*
X86682380Y-23624285D01*
X86682380Y-22243333D02*
X86682380Y-22814761D01*
X86682380Y-22529047D02*
X85682380Y-22529047D01*
X85825238Y-22624285D01*
X85920476Y-22719523D01*
X85968095Y-22814761D01*
%TO.C,L1*%
X85712380Y-28176666D02*
X85712380Y-28652857D01*
X84712380Y-28652857D01*
X85712380Y-27319523D02*
X85712380Y-27890952D01*
X85712380Y-27605238D02*
X84712380Y-27605238D01*
X84855238Y-27700476D01*
X84950476Y-27795714D01*
X84998095Y-27890952D01*
%TO.C,R1*%
X90583333Y-24862380D02*
X90250000Y-24386190D01*
X90011904Y-24862380D02*
X90011904Y-23862380D01*
X90392857Y-23862380D01*
X90488095Y-23910000D01*
X90535714Y-23957619D01*
X90583333Y-24052857D01*
X90583333Y-24195714D01*
X90535714Y-24290952D01*
X90488095Y-24338571D01*
X90392857Y-24386190D01*
X90011904Y-24386190D01*
X91535714Y-24862380D02*
X90964285Y-24862380D01*
X91250000Y-24862380D02*
X91250000Y-23862380D01*
X91154761Y-24005238D01*
X91059523Y-24100476D01*
X90964285Y-24148095D01*
%TO.C,U1*%
D12*
X90110074Y-31548803D02*
X90110074Y-32186224D01*
X90147570Y-32261215D01*
X90185065Y-32298710D01*
X90260056Y-32336205D01*
X90410037Y-32336205D01*
X90485028Y-32298710D01*
X90522523Y-32261215D01*
X90560018Y-32186224D01*
X90560018Y-31548803D01*
X91347420Y-32336205D02*
X90897476Y-32336205D01*
X91122448Y-32336205D02*
X91122448Y-31548803D01*
X91047458Y-31661289D01*
X90972467Y-31736280D01*
X90897476Y-31773775D01*
%TO.C,C2*%
D11*
X84827142Y-41666666D02*
X84874761Y-41714285D01*
X84922380Y-41857142D01*
X84922380Y-41952380D01*
X84874761Y-42095238D01*
X84779523Y-42190476D01*
X84684285Y-42238095D01*
X84493809Y-42285714D01*
X84350952Y-42285714D01*
X84160476Y-42238095D01*
X84065238Y-42190476D01*
X83970000Y-42095238D01*
X83922380Y-41952380D01*
X83922380Y-41857142D01*
X83970000Y-41714285D01*
X84017619Y-41666666D01*
X84017619Y-41285714D02*
X83970000Y-41238095D01*
X83922380Y-41142857D01*
X83922380Y-40904761D01*
X83970000Y-40809523D01*
X84017619Y-40761904D01*
X84112857Y-40714285D01*
X84208095Y-40714285D01*
X84350952Y-40761904D01*
X84922380Y-41333333D01*
X84922380Y-40714285D01*
%TO.C,C3*%
X84827142Y-54826666D02*
X84874761Y-54874285D01*
X84922380Y-55017142D01*
X84922380Y-55112380D01*
X84874761Y-55255238D01*
X84779523Y-55350476D01*
X84684285Y-55398095D01*
X84493809Y-55445714D01*
X84350952Y-55445714D01*
X84160476Y-55398095D01*
X84065238Y-55350476D01*
X83970000Y-55255238D01*
X83922380Y-55112380D01*
X83922380Y-55017142D01*
X83970000Y-54874285D01*
X84017619Y-54826666D01*
X83922380Y-54493333D02*
X83922380Y-53874285D01*
X84303333Y-54207619D01*
X84303333Y-54064761D01*
X84350952Y-53969523D01*
X84398571Y-53921904D01*
X84493809Y-53874285D01*
X84731904Y-53874285D01*
X84827142Y-53921904D01*
X84874761Y-53969523D01*
X84922380Y-54064761D01*
X84922380Y-54350476D01*
X84874761Y-54445714D01*
X84827142Y-54493333D01*
%TO.C,C4*%
X84747142Y-68636666D02*
X84794761Y-68684285D01*
X84842380Y-68827142D01*
X84842380Y-68922380D01*
X84794761Y-69065238D01*
X84699523Y-69160476D01*
X84604285Y-69208095D01*
X84413809Y-69255714D01*
X84270952Y-69255714D01*
X84080476Y-69208095D01*
X83985238Y-69160476D01*
X83890000Y-69065238D01*
X83842380Y-68922380D01*
X83842380Y-68827142D01*
X83890000Y-68684285D01*
X83937619Y-68636666D01*
X84175714Y-67779523D02*
X84842380Y-67779523D01*
X83794761Y-68017619D02*
X84509047Y-68255714D01*
X84509047Y-67636666D01*
%TO.C,D2*%
X89092380Y-46828095D02*
X88092380Y-46828095D01*
X88092380Y-46590000D01*
X88140000Y-46447142D01*
X88235238Y-46351904D01*
X88330476Y-46304285D01*
X88520952Y-46256666D01*
X88663809Y-46256666D01*
X88854285Y-46304285D01*
X88949523Y-46351904D01*
X89044761Y-46447142D01*
X89092380Y-46590000D01*
X89092380Y-46828095D01*
X88187619Y-45875714D02*
X88140000Y-45828095D01*
X88092380Y-45732857D01*
X88092380Y-45494761D01*
X88140000Y-45399523D01*
X88187619Y-45351904D01*
X88282857Y-45304285D01*
X88378095Y-45304285D01*
X88520952Y-45351904D01*
X89092380Y-45923333D01*
X89092380Y-45304285D01*
%TO.C,D3*%
X89172380Y-60338095D02*
X88172380Y-60338095D01*
X88172380Y-60100000D01*
X88220000Y-59957142D01*
X88315238Y-59861904D01*
X88410476Y-59814285D01*
X88600952Y-59766666D01*
X88743809Y-59766666D01*
X88934285Y-59814285D01*
X89029523Y-59861904D01*
X89124761Y-59957142D01*
X89172380Y-60100000D01*
X89172380Y-60338095D01*
X88172380Y-59433333D02*
X88172380Y-58814285D01*
X88553333Y-59147619D01*
X88553333Y-59004761D01*
X88600952Y-58909523D01*
X88648571Y-58861904D01*
X88743809Y-58814285D01*
X88981904Y-58814285D01*
X89077142Y-58861904D01*
X89124761Y-58909523D01*
X89172380Y-59004761D01*
X89172380Y-59290476D01*
X89124761Y-59385714D01*
X89077142Y-59433333D01*
%TO.C,D4*%
X89022380Y-74018095D02*
X88022380Y-74018095D01*
X88022380Y-73780000D01*
X88070000Y-73637142D01*
X88165238Y-73541904D01*
X88260476Y-73494285D01*
X88450952Y-73446666D01*
X88593809Y-73446666D01*
X88784285Y-73494285D01*
X88879523Y-73541904D01*
X88974761Y-73637142D01*
X89022380Y-73780000D01*
X89022380Y-74018095D01*
X88355714Y-72589523D02*
X89022380Y-72589523D01*
X87974761Y-72827619D02*
X88689047Y-73065714D01*
X88689047Y-72446666D01*
%TO.C,J2*%
X85332380Y-37853333D02*
X86046666Y-37853333D01*
X86189523Y-37900952D01*
X86284761Y-37996190D01*
X86332380Y-38139047D01*
X86332380Y-38234285D01*
X85427619Y-37424761D02*
X85380000Y-37377142D01*
X85332380Y-37281904D01*
X85332380Y-37043809D01*
X85380000Y-36948571D01*
X85427619Y-36900952D01*
X85522857Y-36853333D01*
X85618095Y-36853333D01*
X85760952Y-36900952D01*
X86332380Y-37472380D01*
X86332380Y-36853333D01*
%TO.C,J3*%
X85402380Y-51293333D02*
X86116666Y-51293333D01*
X86259523Y-51340952D01*
X86354761Y-51436190D01*
X86402380Y-51579047D01*
X86402380Y-51674285D01*
X85402380Y-50912380D02*
X85402380Y-50293333D01*
X85783333Y-50626666D01*
X85783333Y-50483809D01*
X85830952Y-50388571D01*
X85878571Y-50340952D01*
X85973809Y-50293333D01*
X86211904Y-50293333D01*
X86307142Y-50340952D01*
X86354761Y-50388571D01*
X86402380Y-50483809D01*
X86402380Y-50769523D01*
X86354761Y-50864761D01*
X86307142Y-50912380D01*
%TO.C,J4*%
X85482380Y-65033333D02*
X86196666Y-65033333D01*
X86339523Y-65080952D01*
X86434761Y-65176190D01*
X86482380Y-65319047D01*
X86482380Y-65414285D01*
X85815714Y-64128571D02*
X86482380Y-64128571D01*
X85434761Y-64366666D02*
X86149047Y-64604761D01*
X86149047Y-63985714D01*
%TO.C,J6*%
X77912380Y-78403333D02*
X78626666Y-78403333D01*
X78769523Y-78450952D01*
X78864761Y-78546190D01*
X78912380Y-78689047D01*
X78912380Y-78784285D01*
X77912380Y-77498571D02*
X77912380Y-77689047D01*
X77960000Y-77784285D01*
X78007619Y-77831904D01*
X78150476Y-77927142D01*
X78340952Y-77974761D01*
X78721904Y-77974761D01*
X78817142Y-77927142D01*
X78864761Y-77879523D01*
X78912380Y-77784285D01*
X78912380Y-77593809D01*
X78864761Y-77498571D01*
X78817142Y-77450952D01*
X78721904Y-77403333D01*
X78483809Y-77403333D01*
X78388571Y-77450952D01*
X78340952Y-77498571D01*
X78293333Y-77593809D01*
X78293333Y-77784285D01*
X78340952Y-77879523D01*
X78388571Y-77927142D01*
X78483809Y-77974761D01*
%TO.C,L2*%
X85722380Y-41856666D02*
X85722380Y-42332857D01*
X84722380Y-42332857D01*
X84817619Y-41570952D02*
X84770000Y-41523333D01*
X84722380Y-41428095D01*
X84722380Y-41190000D01*
X84770000Y-41094761D01*
X84817619Y-41047142D01*
X84912857Y-40999523D01*
X85008095Y-40999523D01*
X85150952Y-41047142D01*
X85722380Y-41618571D01*
X85722380Y-40999523D01*
%TO.C,L3*%
X85722380Y-55526666D02*
X85722380Y-56002857D01*
X84722380Y-56002857D01*
X84722380Y-55288571D02*
X84722380Y-54669523D01*
X85103333Y-55002857D01*
X85103333Y-54860000D01*
X85150952Y-54764761D01*
X85198571Y-54717142D01*
X85293809Y-54669523D01*
X85531904Y-54669523D01*
X85627142Y-54717142D01*
X85674761Y-54764761D01*
X85722380Y-54860000D01*
X85722380Y-55145714D01*
X85674761Y-55240952D01*
X85627142Y-55288571D01*
%TO.C,L4*%
X85722380Y-69206666D02*
X85722380Y-69682857D01*
X84722380Y-69682857D01*
X85055714Y-68444761D02*
X85722380Y-68444761D01*
X84674761Y-68682857D02*
X85389047Y-68920952D01*
X85389047Y-68301904D01*
%TO.C,R2*%
X90203333Y-39582380D02*
X89870000Y-39106190D01*
X89631904Y-39582380D02*
X89631904Y-38582380D01*
X90012857Y-38582380D01*
X90108095Y-38630000D01*
X90155714Y-38677619D01*
X90203333Y-38772857D01*
X90203333Y-38915714D01*
X90155714Y-39010952D01*
X90108095Y-39058571D01*
X90012857Y-39106190D01*
X89631904Y-39106190D01*
X90584285Y-38677619D02*
X90631904Y-38630000D01*
X90727142Y-38582380D01*
X90965238Y-38582380D01*
X91060476Y-38630000D01*
X91108095Y-38677619D01*
X91155714Y-38772857D01*
X91155714Y-38868095D01*
X91108095Y-39010952D01*
X90536666Y-39582380D01*
X91155714Y-39582380D01*
%TO.C,R3*%
X90353333Y-53012380D02*
X90020000Y-52536190D01*
X89781904Y-53012380D02*
X89781904Y-52012380D01*
X90162857Y-52012380D01*
X90258095Y-52060000D01*
X90305714Y-52107619D01*
X90353333Y-52202857D01*
X90353333Y-52345714D01*
X90305714Y-52440952D01*
X90258095Y-52488571D01*
X90162857Y-52536190D01*
X89781904Y-52536190D01*
X90686666Y-52012380D02*
X91305714Y-52012380D01*
X90972380Y-52393333D01*
X91115238Y-52393333D01*
X91210476Y-52440952D01*
X91258095Y-52488571D01*
X91305714Y-52583809D01*
X91305714Y-52821904D01*
X91258095Y-52917142D01*
X91210476Y-52964761D01*
X91115238Y-53012380D01*
X90829523Y-53012380D01*
X90734285Y-52964761D01*
X90686666Y-52917142D01*
%TO.C,R4*%
X90373333Y-66292380D02*
X90040000Y-65816190D01*
X89801904Y-66292380D02*
X89801904Y-65292380D01*
X90182857Y-65292380D01*
X90278095Y-65340000D01*
X90325714Y-65387619D01*
X90373333Y-65482857D01*
X90373333Y-65625714D01*
X90325714Y-65720952D01*
X90278095Y-65768571D01*
X90182857Y-65816190D01*
X89801904Y-65816190D01*
X91230476Y-65625714D02*
X91230476Y-66292380D01*
X90992380Y-65244761D02*
X90754285Y-65959047D01*
X91373333Y-65959047D01*
%TO.C,U2*%
D12*
X89880074Y-44788803D02*
X89880074Y-45426224D01*
X89917570Y-45501215D01*
X89955065Y-45538710D01*
X90030056Y-45576205D01*
X90180037Y-45576205D01*
X90255028Y-45538710D01*
X90292523Y-45501215D01*
X90330018Y-45426224D01*
X90330018Y-44788803D01*
X90667476Y-44863794D02*
X90704972Y-44826299D01*
X90779962Y-44788803D01*
X90967439Y-44788803D01*
X91042430Y-44826299D01*
X91079925Y-44863794D01*
X91117420Y-44938785D01*
X91117420Y-45013775D01*
X91079925Y-45126261D01*
X90629981Y-45576205D01*
X91117420Y-45576205D01*
%TO.C,U3*%
X90010074Y-58518803D02*
X90010074Y-59156224D01*
X90047570Y-59231215D01*
X90085065Y-59268710D01*
X90160056Y-59306205D01*
X90310037Y-59306205D01*
X90385028Y-59268710D01*
X90422523Y-59231215D01*
X90460018Y-59156224D01*
X90460018Y-58518803D01*
X90759981Y-58518803D02*
X91247420Y-58518803D01*
X90984953Y-58818766D01*
X91097439Y-58818766D01*
X91172430Y-58856261D01*
X91209925Y-58893757D01*
X91247420Y-58968747D01*
X91247420Y-59156224D01*
X91209925Y-59231215D01*
X91172430Y-59268710D01*
X91097439Y-59306205D01*
X90872467Y-59306205D01*
X90797476Y-59268710D01*
X90759981Y-59231215D01*
%TO.C,U4*%
X90060074Y-71398803D02*
X90060074Y-72036224D01*
X90097570Y-72111215D01*
X90135065Y-72148710D01*
X90210056Y-72186205D01*
X90360037Y-72186205D01*
X90435028Y-72148710D01*
X90472523Y-72111215D01*
X90510018Y-72036224D01*
X90510018Y-71398803D01*
X91222430Y-71661271D02*
X91222430Y-72186205D01*
X91034953Y-71361308D02*
X90847476Y-71923738D01*
X91334916Y-71923738D01*
%TD*%
M02*
