%TF.GenerationSoftware,KiCad,Pcbnew,(5.1.6)-1*%
%TF.CreationDate,2020-08-18T19:37:20-07:00*%
%TF.ProjectId,RGBW Driver,52474257-2044-4726-9976-65722e6b6963,rev?*%
%TF.SameCoordinates,Original*%
%TF.FileFunction,Copper,L2,Bot*%
%TF.FilePolarity,Positive*%
%FSLAX46Y46*%
G04 Gerber Fmt 4.6, Leading zero omitted, Abs format (unit mm)*
G04 Created by KiCad (PCBNEW (5.1.6)-1) date 2020-08-18 19:37:20*
%MOMM*%
%LPD*%
G01*
G04 APERTURE LIST*
%TA.AperFunction,ComponentPad*%
%ADD10O,1.700000X1.700000*%
%TD*%
%TA.AperFunction,ComponentPad*%
%ADD11R,1.700000X1.700000*%
%TD*%
%TA.AperFunction,ViaPad*%
%ADD12C,0.800000*%
%TD*%
%TA.AperFunction,Conductor*%
%ADD13C,1.000000*%
%TD*%
%TA.AperFunction,Conductor*%
%ADD14C,0.250000*%
%TD*%
G04 APERTURE END LIST*
D10*
%TO.P,J5,2*%
%TO.N,/Gnd*%
X75910000Y-77920000D03*
D11*
%TO.P,J5,1*%
%TO.N,/Vin*%
X73370000Y-77920000D03*
%TD*%
D10*
%TO.P,J1,2*%
%TO.N,/LED1+*%
X91100000Y-22910000D03*
D11*
%TO.P,J1,1*%
%TO.N,/LED1-*%
X88560000Y-22910000D03*
%TD*%
D10*
%TO.P,J2,2*%
%TO.N,/LED2+*%
X90750000Y-37520000D03*
D11*
%TO.P,J2,1*%
%TO.N,/LED2-*%
X88210000Y-37520000D03*
%TD*%
D10*
%TO.P,J3,2*%
%TO.N,/LED3+*%
X90820000Y-50960000D03*
D11*
%TO.P,J3,1*%
%TO.N,/LED3-*%
X88280000Y-50960000D03*
%TD*%
%TO.P,J4,1*%
%TO.N,/LED4-*%
X88360000Y-64700000D03*
D10*
%TO.P,J4,2*%
%TO.N,/LED4+*%
X90900000Y-64700000D03*
%TD*%
%TO.P,J6,5*%
%TO.N,/Dim4*%
X90950000Y-78070000D03*
%TO.P,J6,4*%
%TO.N,/Dim3*%
X88410000Y-78070000D03*
%TO.P,J6,3*%
%TO.N,/Dim2*%
X85870000Y-78070000D03*
%TO.P,J6,2*%
%TO.N,/Dim1*%
X83330000Y-78070000D03*
D11*
%TO.P,J6,1*%
%TO.N,/Gnd*%
X80790000Y-78070000D03*
%TD*%
D12*
%TO.N,/Gnd*%
X80890000Y-25970000D03*
X80841099Y-39978901D03*
X80823170Y-53343170D03*
X80804950Y-66925050D03*
X86010000Y-68400000D03*
X88740000Y-71750000D03*
X86350000Y-54670000D03*
X88760000Y-58990000D03*
X86250000Y-41470000D03*
X88600000Y-45320000D03*
X85880000Y-27360000D03*
X88790000Y-31990000D03*
%TO.N,/Dim3*%
X92160000Y-62380000D03*
%TO.N,/Dim2*%
X92010000Y-48560000D03*
%TO.N,/Dim1*%
X92270000Y-35260000D03*
%TD*%
D13*
%TO.N,/Gnd*%
X80860000Y-25890000D02*
X80890000Y-25970000D01*
X80841099Y-39978901D02*
X80860000Y-25890000D01*
X80823170Y-53343170D02*
X80841099Y-39978901D01*
X80790000Y-78070000D02*
X80804950Y-66925050D01*
X80804950Y-66925050D02*
X80823170Y-53343170D01*
X86010000Y-68400000D02*
X88740000Y-71750000D01*
X86350000Y-54670000D02*
X88760000Y-58990000D01*
X86250000Y-41470000D02*
X88600000Y-45320000D01*
X85880000Y-27360000D02*
X88790000Y-31990000D01*
D14*
%TO.N,/Dim3*%
X92160000Y-62380000D02*
X83400000Y-62350000D01*
X83400000Y-62350000D02*
X83400000Y-75460000D01*
X83400000Y-75460000D02*
X86640000Y-76610000D01*
X86640000Y-76610000D02*
X88410000Y-78070000D01*
%TO.N,/Dim2*%
X92010000Y-48560000D02*
X82720000Y-48560000D01*
X82720000Y-48560000D02*
X82770000Y-75980000D01*
X82770000Y-75980000D02*
X85870000Y-78070000D01*
%TO.N,/Dim1*%
X92270000Y-35260000D02*
X82010000Y-35260000D01*
X82010000Y-35260000D02*
X82040000Y-76540000D01*
X82040000Y-76540000D02*
X83330000Y-78070000D01*
%TD*%
M02*
