M48
; DRILL file {KiCad (5.1.6)-1} date 08/20/20 15:31:03
; FORMAT={-:-/ absolute / inch / decimal}
; #@! TF.CreationDate,2020-08-20T15:31:03-07:00
; #@! TF.GenerationSoftware,Kicad,Pcbnew,(5.1.6)-1
FMAT,2
INCH
T1C0.0157
T2C0.0394
%
G90
G05
T1
X2.9962Y-2.6485
X2.9971Y-2.1098
X3.0002Y-1.5613
X3.0022Y-1.0194
X3.0311Y-2.6486
X3.0327Y-2.1098
X3.0352Y-1.5613
X3.0377Y-1.0192
X3.0663Y-2.6486
X3.0679Y-2.1098
X3.0704Y-1.5613
X3.0729Y-1.0192
X3.2098Y-1.3795
X3.2618Y-1.9138
X3.2819Y-2.4528
X3.4815Y-1.5625
X3.4869Y-2.1099
X3.4873Y-2.6481
X3.4877Y-1.0191
X3.5168Y-1.5624
X3.5222Y-2.1098
X3.5226Y-2.648
X3.523Y-1.019
X3.5445Y-1.2374
X3.5445Y-1.2768
X3.5453Y-2.3157
X3.5453Y-2.3551
X3.5453Y-2.8555
X3.5453Y-2.8949
X3.5457Y-1.7724
X3.5457Y-1.8118
X3.5518Y-1.562
X3.5572Y-2.1094
X3.5576Y-2.6476
X3.558Y-1.0186
X3.564Y-1.2572
X3.5646Y-1.7921
X3.5653Y-2.335
X3.5653Y-2.875
X3.5839Y-1.2374
X3.5839Y-1.2768
X3.5846Y-2.3157
X3.5846Y-2.3551
X3.5846Y-2.8555
X3.5846Y-2.8949
X3.585Y-1.7724
X3.585Y-1.8118
T2
X3.4787Y-1.9909
X3.5787Y-1.9909
X3.4787Y-0.902
X3.5787Y-0.902
X2.8928Y-3.0714
X2.9928Y-3.0714
X3.0928Y-3.0714
X3.1928Y-3.0714
X3.2928Y-3.0714
X3.3928Y-3.0714
X3.4928Y-3.0714
X3.5928Y-3.0714
X3.4772Y-2.5429
X3.5772Y-2.5429
X3.478Y-1.4575
X3.578Y-1.4575
T0
M30
