%TF.GenerationSoftware,KiCad,Pcbnew,(5.1.6)-1*%
%TF.CreationDate,2020-08-20T15:31:08-07:00*%
%TF.ProjectId,RGBW Driver,52474257-2044-4726-9976-65722e6b6963,rev?*%
%TF.SameCoordinates,Original*%
%TF.FileFunction,Paste,Top*%
%TF.FilePolarity,Positive*%
%FSLAX46Y46*%
G04 Gerber Fmt 4.6, Leading zero omitted, Abs format (unit mm)*
G04 Created by KiCad (PCBNEW (5.1.6)-1) date 2020-08-20 15:31:08*
%MOMM*%
%LPD*%
G01*
G04 APERTURE LIST*
%ADD10R,2.500000X1.000000*%
%ADD11R,1.200000X0.900000*%
%ADD12R,5.400000X2.900000*%
%ADD13R,0.900000X1.700000*%
%ADD14C,0.100000*%
%ADD15R,0.700000X1.500000*%
%ADD16R,1.000000X1.500000*%
%ADD17R,2.000000X0.800000*%
G04 APERTURE END LIST*
D10*
%TO.C,C1*%
X86390000Y-25890000D03*
X86390000Y-28890000D03*
%TD*%
D11*
%TO.C,D1*%
X86730000Y-34050000D03*
X86730000Y-30750000D03*
%TD*%
D12*
%TO.C,L1*%
X78180000Y-32890000D03*
X78180000Y-22990000D03*
%TD*%
D13*
%TO.C,R1*%
X91950000Y-27880000D03*
X89050000Y-27880000D03*
%TD*%
D10*
%TO.C,C2*%
X86370000Y-39670000D03*
X86370000Y-42670000D03*
%TD*%
%TO.C,C3*%
X86370000Y-53590000D03*
X86370000Y-56590000D03*
%TD*%
%TO.C,C4*%
X86390000Y-70290000D03*
X86390000Y-67290000D03*
%TD*%
D11*
%TO.C,D2*%
X86690000Y-47650000D03*
X86690000Y-44350000D03*
%TD*%
%TO.C,D3*%
X86710000Y-58150000D03*
X86710000Y-61450000D03*
%TD*%
%TO.C,D4*%
X86690000Y-75150000D03*
X86690000Y-71850000D03*
%TD*%
D12*
%TO.C,L2*%
X78180000Y-36730000D03*
X78180000Y-46630000D03*
%TD*%
%TO.C,L3*%
X78180000Y-60380000D03*
X78180000Y-50480000D03*
%TD*%
%TO.C,L4*%
X78190000Y-74130000D03*
X78190000Y-64230000D03*
%TD*%
D13*
%TO.C,R2*%
X91870000Y-41420000D03*
X88970000Y-41420000D03*
%TD*%
%TO.C,R3*%
X89050000Y-55200000D03*
X91950000Y-55200000D03*
%TD*%
%TO.C,R4*%
X92110000Y-68930000D03*
X89210000Y-68930000D03*
%TD*%
D14*
%TO.C,U1*%
G36*
X89560000Y-31500000D02*
G01*
X90060000Y-30750000D01*
X91060000Y-30750000D01*
X91560000Y-31500000D01*
X89560000Y-31500000D01*
G37*
D15*
X89060000Y-30050000D03*
X92060000Y-30050000D03*
X89060000Y-33750000D03*
D16*
X90560000Y-33750000D03*
D15*
X92060000Y-33750000D03*
D16*
X90560000Y-30050000D03*
D14*
G36*
X91560000Y-32300000D02*
G01*
X91060000Y-33050000D01*
X90060000Y-33050000D01*
X89560000Y-32300000D01*
X91560000Y-32300000D01*
G37*
D17*
X90560000Y-31900000D03*
%TD*%
%TO.C,U2*%
X90560000Y-45490000D03*
D14*
G36*
X91560000Y-45890000D02*
G01*
X91060000Y-46640000D01*
X90060000Y-46640000D01*
X89560000Y-45890000D01*
X91560000Y-45890000D01*
G37*
D16*
X90560000Y-43640000D03*
D15*
X92060000Y-47340000D03*
D16*
X90560000Y-47340000D03*
D15*
X89060000Y-47340000D03*
X92060000Y-43640000D03*
X89060000Y-43640000D03*
D14*
G36*
X89560000Y-45090000D02*
G01*
X90060000Y-44340000D01*
X91060000Y-44340000D01*
X91560000Y-45090000D01*
X89560000Y-45090000D01*
G37*
%TD*%
D17*
%TO.C,U3*%
X90560000Y-59270000D03*
D14*
G36*
X91560000Y-59670000D02*
G01*
X91060000Y-60420000D01*
X90060000Y-60420000D01*
X89560000Y-59670000D01*
X91560000Y-59670000D01*
G37*
D16*
X90560000Y-57420000D03*
D15*
X92060000Y-61120000D03*
D16*
X90560000Y-61120000D03*
D15*
X89060000Y-61120000D03*
X92060000Y-57420000D03*
X89060000Y-57420000D03*
D14*
G36*
X89560000Y-58870000D02*
G01*
X90060000Y-58120000D01*
X91060000Y-58120000D01*
X91560000Y-58870000D01*
X89560000Y-58870000D01*
G37*
%TD*%
%TO.C,U4*%
G36*
X89560000Y-72610000D02*
G01*
X90060000Y-71860000D01*
X91060000Y-71860000D01*
X91560000Y-72610000D01*
X89560000Y-72610000D01*
G37*
D15*
X89060000Y-71160000D03*
X92060000Y-71160000D03*
X89060000Y-74860000D03*
D16*
X90560000Y-74860000D03*
D15*
X92060000Y-74860000D03*
D16*
X90560000Y-71160000D03*
D14*
G36*
X91560000Y-73410000D02*
G01*
X91060000Y-74160000D01*
X90060000Y-74160000D01*
X89560000Y-73410000D01*
X91560000Y-73410000D01*
G37*
D17*
X90560000Y-73010000D03*
%TD*%
M02*
