%TF.GenerationSoftware,KiCad,Pcbnew,(5.1.6)-1*%
%TF.CreationDate,2020-08-20T15:31:08-07:00*%
%TF.ProjectId,RGBW Driver,52474257-2044-4726-9976-65722e6b6963,rev?*%
%TF.SameCoordinates,Original*%
%TF.FileFunction,Copper,L2,Bot*%
%TF.FilePolarity,Positive*%
%FSLAX46Y46*%
G04 Gerber Fmt 4.6, Leading zero omitted, Abs format (unit mm)*
G04 Created by KiCad (PCBNEW (5.1.6)-1) date 2020-08-20 15:31:08*
%MOMM*%
%LPD*%
G01*
G04 APERTURE LIST*
%TA.AperFunction,ComponentPad*%
%ADD10O,1.700000X1.700000*%
%TD*%
%TA.AperFunction,ComponentPad*%
%ADD11R,1.700000X1.700000*%
%TD*%
%TA.AperFunction,ViaPad*%
%ADD12C,0.800000*%
%TD*%
%TA.AperFunction,Conductor*%
%ADD13C,1.000000*%
%TD*%
%TA.AperFunction,Conductor*%
%ADD14C,0.250000*%
%TD*%
%TA.AperFunction,Conductor*%
%ADD15C,0.254000*%
%TD*%
G04 APERTURE END LIST*
D10*
%TO.P,J5,8*%
%TO.N,/Dim4*%
X91257120Y-78013560D03*
%TO.P,J5,7*%
%TO.N,/Dim3*%
X88717120Y-78013560D03*
%TO.P,J5,6*%
%TO.N,/Dim2*%
X86177120Y-78013560D03*
%TO.P,J5,5*%
%TO.N,/Dim1*%
X83637120Y-78013560D03*
%TO.P,J5,4*%
%TO.N,/Gnd*%
X81097120Y-78013560D03*
%TO.P,J5,3*%
%TO.N,Net-(J5-Pad3)*%
X78557120Y-78013560D03*
%TO.P,J5,2*%
%TO.N,/Gnd*%
X76017120Y-78013560D03*
D11*
%TO.P,J5,1*%
%TO.N,/Vin*%
X73477120Y-78013560D03*
%TD*%
D10*
%TO.P,J1,2*%
%TO.N,/LED1+*%
X90900000Y-22910000D03*
D11*
%TO.P,J1,1*%
%TO.N,/LED1-*%
X88360000Y-22910000D03*
%TD*%
D10*
%TO.P,J2,2*%
%TO.N,/LED2+*%
X90880000Y-37020000D03*
D11*
%TO.P,J2,1*%
%TO.N,/LED2-*%
X88340000Y-37020000D03*
%TD*%
D10*
%TO.P,J3,2*%
%TO.N,/LED3+*%
X90900000Y-50570000D03*
D11*
%TO.P,J3,1*%
%TO.N,/LED3-*%
X88360000Y-50570000D03*
%TD*%
%TO.P,J4,1*%
%TO.N,/LED4-*%
X88320000Y-64590000D03*
D10*
%TO.P,J4,2*%
%TO.N,/LED4+*%
X90860000Y-64590000D03*
%TD*%
D12*
%TO.N,/Gnd*%
X90558620Y-73025000D03*
X90050000Y-72530000D03*
X91050000Y-72530000D03*
X90050000Y-73530000D03*
X91050000Y-73530000D03*
X90050000Y-58820000D03*
X91050000Y-58820000D03*
X90050000Y-59820000D03*
X91050000Y-59820000D03*
X91060000Y-45020000D03*
X90060000Y-46020000D03*
X91060000Y-46020000D03*
X90060000Y-45020000D03*
X91030000Y-31430000D03*
X90030000Y-32430000D03*
X91030000Y-32430000D03*
X90030000Y-31430000D03*
X88587108Y-25884668D03*
X89484091Y-25882491D03*
X90373200Y-25872440D03*
X88429628Y-39687028D03*
X89326611Y-39684851D03*
X90215720Y-39674800D03*
X90352880Y-53578760D03*
X88566788Y-53590988D03*
X89463771Y-53588811D03*
X89473931Y-67259091D03*
X90363040Y-67249040D03*
X88576948Y-67261268D03*
X76255880Y-25892760D03*
X76205080Y-39657020D03*
X76126340Y-53588920D03*
X76103480Y-67271900D03*
X76990919Y-67273461D03*
X77883428Y-67275032D03*
X77924068Y-53589512D03*
X77031559Y-53587941D03*
X77095059Y-39656041D03*
X77987568Y-39657612D03*
X78051068Y-25888272D03*
X77158559Y-25886701D03*
X90525600Y-31932880D03*
X90540840Y-45519340D03*
X90558620Y-59309000D03*
%TO.N,/Dim3*%
X83360000Y-62300000D03*
%TO.N,/Dim2*%
X82850000Y-48610000D03*
%TO.N,/Dim1*%
X81530000Y-35040000D03*
%TD*%
D13*
%TO.N,/Gnd*%
X81097120Y-78013560D02*
X76041640Y-72660900D01*
X76017120Y-78013560D02*
X76041640Y-72660900D01*
X76041640Y-72660900D02*
X76255880Y-25892760D01*
D14*
%TO.N,/Dim3*%
X83370000Y-62290000D02*
X82750000Y-62300000D01*
X82760000Y-75407520D02*
X86640000Y-76610000D01*
X82768440Y-62296040D02*
X82778600Y-75417680D01*
X86640000Y-76610000D02*
X88717120Y-78013560D01*
%TO.N,/Dim2*%
X82070000Y-48580000D02*
X82130000Y-75950000D01*
X82760000Y-75950000D02*
X82130000Y-75950000D01*
X82070000Y-48580000D02*
X82850000Y-48610000D01*
X82760000Y-75950000D02*
X86177120Y-78013560D01*
%TO.N,/Dim1*%
X81530000Y-35020000D02*
X81560000Y-76300000D01*
X81560000Y-76300000D02*
X83637120Y-78013560D01*
%TD*%
D15*
%TO.N,/Gnd*%
G36*
X92650001Y-76240640D02*
G01*
X87450806Y-76240640D01*
X87066668Y-75981069D01*
X87004033Y-75938671D01*
X86969165Y-75923982D01*
X86935910Y-75905984D01*
X86866226Y-75884449D01*
X83538162Y-74853024D01*
X83529557Y-63740000D01*
X86831928Y-63740000D01*
X86831928Y-65440000D01*
X86844188Y-65564482D01*
X86880498Y-65684180D01*
X86939463Y-65794494D01*
X87018815Y-65891185D01*
X87115506Y-65970537D01*
X87225820Y-66029502D01*
X87345518Y-66065812D01*
X87470000Y-66078072D01*
X89170000Y-66078072D01*
X89294482Y-66065812D01*
X89414180Y-66029502D01*
X89524494Y-65970537D01*
X89621185Y-65891185D01*
X89700537Y-65794494D01*
X89759502Y-65684180D01*
X89781513Y-65611620D01*
X89913368Y-65743475D01*
X90156589Y-65905990D01*
X90426842Y-66017932D01*
X90713740Y-66075000D01*
X91006260Y-66075000D01*
X91293158Y-66017932D01*
X91563411Y-65905990D01*
X91806632Y-65743475D01*
X92013475Y-65536632D01*
X92175990Y-65293411D01*
X92287932Y-65023158D01*
X92345000Y-64736260D01*
X92345000Y-64443740D01*
X92287932Y-64156842D01*
X92175990Y-63886589D01*
X92013475Y-63643368D01*
X91806632Y-63436525D01*
X91563411Y-63274010D01*
X91293158Y-63162068D01*
X91006260Y-63105000D01*
X90713740Y-63105000D01*
X90426842Y-63162068D01*
X90156589Y-63274010D01*
X89913368Y-63436525D01*
X89781513Y-63568380D01*
X89759502Y-63495820D01*
X89700537Y-63385506D01*
X89621185Y-63288815D01*
X89524494Y-63209463D01*
X89414180Y-63150498D01*
X89294482Y-63114188D01*
X89170000Y-63101928D01*
X87470000Y-63101928D01*
X87345518Y-63114188D01*
X87225820Y-63150498D01*
X87115506Y-63209463D01*
X87018815Y-63288815D01*
X86939463Y-63385506D01*
X86880498Y-63495820D01*
X86844188Y-63615518D01*
X86831928Y-63740000D01*
X83529557Y-63740000D01*
X83529233Y-63321614D01*
X83661898Y-63295226D01*
X83850256Y-63217205D01*
X84019774Y-63103937D01*
X84163937Y-62959774D01*
X84277205Y-62790256D01*
X84355226Y-62601898D01*
X84395000Y-62401939D01*
X84395000Y-62198061D01*
X84355226Y-61998102D01*
X84277205Y-61809744D01*
X84163937Y-61640226D01*
X84019774Y-61496063D01*
X83850256Y-61382795D01*
X83661898Y-61304774D01*
X83461939Y-61265000D01*
X83258061Y-61265000D01*
X83058102Y-61304774D01*
X82869744Y-61382795D01*
X82858085Y-61390585D01*
X82832501Y-49720000D01*
X86871928Y-49720000D01*
X86871928Y-51420000D01*
X86884188Y-51544482D01*
X86920498Y-51664180D01*
X86979463Y-51774494D01*
X87058815Y-51871185D01*
X87155506Y-51950537D01*
X87265820Y-52009502D01*
X87385518Y-52045812D01*
X87510000Y-52058072D01*
X89210000Y-52058072D01*
X89334482Y-52045812D01*
X89454180Y-52009502D01*
X89564494Y-51950537D01*
X89661185Y-51871185D01*
X89740537Y-51774494D01*
X89799502Y-51664180D01*
X89821513Y-51591620D01*
X89953368Y-51723475D01*
X90196589Y-51885990D01*
X90466842Y-51997932D01*
X90753740Y-52055000D01*
X91046260Y-52055000D01*
X91333158Y-51997932D01*
X91603411Y-51885990D01*
X91846632Y-51723475D01*
X92053475Y-51516632D01*
X92215990Y-51273411D01*
X92327932Y-51003158D01*
X92385000Y-50716260D01*
X92385000Y-50423740D01*
X92327932Y-50136842D01*
X92215990Y-49866589D01*
X92053475Y-49623368D01*
X91846632Y-49416525D01*
X91603411Y-49254010D01*
X91333158Y-49142068D01*
X91046260Y-49085000D01*
X90753740Y-49085000D01*
X90466842Y-49142068D01*
X90196589Y-49254010D01*
X89953368Y-49416525D01*
X89821513Y-49548380D01*
X89799502Y-49475820D01*
X89740537Y-49365506D01*
X89661185Y-49268815D01*
X89564494Y-49189463D01*
X89454180Y-49130498D01*
X89334482Y-49094188D01*
X89210000Y-49081928D01*
X87510000Y-49081928D01*
X87385518Y-49094188D01*
X87265820Y-49130498D01*
X87155506Y-49189463D01*
X87058815Y-49268815D01*
X86979463Y-49365506D01*
X86920498Y-49475820D01*
X86884188Y-49595518D01*
X86871928Y-49720000D01*
X82832501Y-49720000D01*
X82832336Y-49645000D01*
X82951939Y-49645000D01*
X83151898Y-49605226D01*
X83340256Y-49527205D01*
X83509774Y-49413937D01*
X83653937Y-49269774D01*
X83767205Y-49100256D01*
X83845226Y-48911898D01*
X83885000Y-48711939D01*
X83885000Y-48508061D01*
X83845226Y-48308102D01*
X83767205Y-48119744D01*
X83653937Y-47950226D01*
X83509774Y-47806063D01*
X83340256Y-47692795D01*
X83151898Y-47614774D01*
X82951939Y-47575000D01*
X82748061Y-47575000D01*
X82548102Y-47614774D01*
X82359744Y-47692795D01*
X82299239Y-47733223D01*
X82290836Y-36170000D01*
X86851928Y-36170000D01*
X86851928Y-37870000D01*
X86864188Y-37994482D01*
X86900498Y-38114180D01*
X86959463Y-38224494D01*
X87038815Y-38321185D01*
X87135506Y-38400537D01*
X87245820Y-38459502D01*
X87365518Y-38495812D01*
X87490000Y-38508072D01*
X89190000Y-38508072D01*
X89314482Y-38495812D01*
X89434180Y-38459502D01*
X89544494Y-38400537D01*
X89641185Y-38321185D01*
X89720537Y-38224494D01*
X89779502Y-38114180D01*
X89801513Y-38041620D01*
X89933368Y-38173475D01*
X90176589Y-38335990D01*
X90446842Y-38447932D01*
X90733740Y-38505000D01*
X91026260Y-38505000D01*
X91313158Y-38447932D01*
X91583411Y-38335990D01*
X91826632Y-38173475D01*
X92033475Y-37966632D01*
X92195990Y-37723411D01*
X92307932Y-37453158D01*
X92365000Y-37166260D01*
X92365000Y-36873740D01*
X92307932Y-36586842D01*
X92195990Y-36316589D01*
X92033475Y-36073368D01*
X91826632Y-35866525D01*
X91583411Y-35704010D01*
X91313158Y-35592068D01*
X91026260Y-35535000D01*
X90733740Y-35535000D01*
X90446842Y-35592068D01*
X90176589Y-35704010D01*
X89933368Y-35866525D01*
X89801513Y-35998380D01*
X89779502Y-35925820D01*
X89720537Y-35815506D01*
X89641185Y-35718815D01*
X89544494Y-35639463D01*
X89434180Y-35580498D01*
X89314482Y-35544188D01*
X89190000Y-35531928D01*
X87490000Y-35531928D01*
X87365518Y-35544188D01*
X87245820Y-35580498D01*
X87135506Y-35639463D01*
X87038815Y-35718815D01*
X86959463Y-35815506D01*
X86900498Y-35925820D01*
X86864188Y-36045518D01*
X86851928Y-36170000D01*
X82290836Y-36170000D01*
X82290525Y-35743186D01*
X82333937Y-35699774D01*
X82447205Y-35530256D01*
X82525226Y-35341898D01*
X82565000Y-35141939D01*
X82565000Y-34938061D01*
X82525226Y-34738102D01*
X82447205Y-34549744D01*
X82333937Y-34380226D01*
X82189774Y-34236063D01*
X82020256Y-34122795D01*
X81831898Y-34044774D01*
X81631939Y-34005000D01*
X81428061Y-34005000D01*
X81228102Y-34044774D01*
X81039744Y-34122795D01*
X80870226Y-34236063D01*
X80726063Y-34380226D01*
X80612795Y-34549744D01*
X80534774Y-34738102D01*
X80495000Y-34938061D01*
X80495000Y-35141939D01*
X80534774Y-35341898D01*
X80612795Y-35530256D01*
X80726063Y-35699774D01*
X80770527Y-35744238D01*
X80799957Y-76240640D01*
X71880000Y-76240640D01*
X71880000Y-22060000D01*
X86871928Y-22060000D01*
X86871928Y-23760000D01*
X86884188Y-23884482D01*
X86920498Y-24004180D01*
X86979463Y-24114494D01*
X87058815Y-24211185D01*
X87155506Y-24290537D01*
X87265820Y-24349502D01*
X87385518Y-24385812D01*
X87510000Y-24398072D01*
X89210000Y-24398072D01*
X89334482Y-24385812D01*
X89454180Y-24349502D01*
X89564494Y-24290537D01*
X89661185Y-24211185D01*
X89740537Y-24114494D01*
X89799502Y-24004180D01*
X89821513Y-23931620D01*
X89953368Y-24063475D01*
X90196589Y-24225990D01*
X90466842Y-24337932D01*
X90753740Y-24395000D01*
X91046260Y-24395000D01*
X91333158Y-24337932D01*
X91603411Y-24225990D01*
X91846632Y-24063475D01*
X92053475Y-23856632D01*
X92215990Y-23613411D01*
X92327932Y-23343158D01*
X92385000Y-23056260D01*
X92385000Y-22763740D01*
X92327932Y-22476842D01*
X92215990Y-22206589D01*
X92053475Y-21963368D01*
X91846632Y-21756525D01*
X91603411Y-21594010D01*
X91333158Y-21482068D01*
X91046260Y-21425000D01*
X90753740Y-21425000D01*
X90466842Y-21482068D01*
X90196589Y-21594010D01*
X89953368Y-21756525D01*
X89821513Y-21888380D01*
X89799502Y-21815820D01*
X89740537Y-21705506D01*
X89661185Y-21608815D01*
X89564494Y-21529463D01*
X89454180Y-21470498D01*
X89334482Y-21434188D01*
X89210000Y-21421928D01*
X87510000Y-21421928D01*
X87385518Y-21434188D01*
X87265820Y-21470498D01*
X87155506Y-21529463D01*
X87058815Y-21608815D01*
X86979463Y-21705506D01*
X86920498Y-21815820D01*
X86884188Y-21935518D01*
X86871928Y-22060000D01*
X71880000Y-22060000D01*
X71880000Y-21350000D01*
X92650000Y-21350000D01*
X92650001Y-76240640D01*
G37*
X92650001Y-76240640D02*
X87450806Y-76240640D01*
X87066668Y-75981069D01*
X87004033Y-75938671D01*
X86969165Y-75923982D01*
X86935910Y-75905984D01*
X86866226Y-75884449D01*
X83538162Y-74853024D01*
X83529557Y-63740000D01*
X86831928Y-63740000D01*
X86831928Y-65440000D01*
X86844188Y-65564482D01*
X86880498Y-65684180D01*
X86939463Y-65794494D01*
X87018815Y-65891185D01*
X87115506Y-65970537D01*
X87225820Y-66029502D01*
X87345518Y-66065812D01*
X87470000Y-66078072D01*
X89170000Y-66078072D01*
X89294482Y-66065812D01*
X89414180Y-66029502D01*
X89524494Y-65970537D01*
X89621185Y-65891185D01*
X89700537Y-65794494D01*
X89759502Y-65684180D01*
X89781513Y-65611620D01*
X89913368Y-65743475D01*
X90156589Y-65905990D01*
X90426842Y-66017932D01*
X90713740Y-66075000D01*
X91006260Y-66075000D01*
X91293158Y-66017932D01*
X91563411Y-65905990D01*
X91806632Y-65743475D01*
X92013475Y-65536632D01*
X92175990Y-65293411D01*
X92287932Y-65023158D01*
X92345000Y-64736260D01*
X92345000Y-64443740D01*
X92287932Y-64156842D01*
X92175990Y-63886589D01*
X92013475Y-63643368D01*
X91806632Y-63436525D01*
X91563411Y-63274010D01*
X91293158Y-63162068D01*
X91006260Y-63105000D01*
X90713740Y-63105000D01*
X90426842Y-63162068D01*
X90156589Y-63274010D01*
X89913368Y-63436525D01*
X89781513Y-63568380D01*
X89759502Y-63495820D01*
X89700537Y-63385506D01*
X89621185Y-63288815D01*
X89524494Y-63209463D01*
X89414180Y-63150498D01*
X89294482Y-63114188D01*
X89170000Y-63101928D01*
X87470000Y-63101928D01*
X87345518Y-63114188D01*
X87225820Y-63150498D01*
X87115506Y-63209463D01*
X87018815Y-63288815D01*
X86939463Y-63385506D01*
X86880498Y-63495820D01*
X86844188Y-63615518D01*
X86831928Y-63740000D01*
X83529557Y-63740000D01*
X83529233Y-63321614D01*
X83661898Y-63295226D01*
X83850256Y-63217205D01*
X84019774Y-63103937D01*
X84163937Y-62959774D01*
X84277205Y-62790256D01*
X84355226Y-62601898D01*
X84395000Y-62401939D01*
X84395000Y-62198061D01*
X84355226Y-61998102D01*
X84277205Y-61809744D01*
X84163937Y-61640226D01*
X84019774Y-61496063D01*
X83850256Y-61382795D01*
X83661898Y-61304774D01*
X83461939Y-61265000D01*
X83258061Y-61265000D01*
X83058102Y-61304774D01*
X82869744Y-61382795D01*
X82858085Y-61390585D01*
X82832501Y-49720000D01*
X86871928Y-49720000D01*
X86871928Y-51420000D01*
X86884188Y-51544482D01*
X86920498Y-51664180D01*
X86979463Y-51774494D01*
X87058815Y-51871185D01*
X87155506Y-51950537D01*
X87265820Y-52009502D01*
X87385518Y-52045812D01*
X87510000Y-52058072D01*
X89210000Y-52058072D01*
X89334482Y-52045812D01*
X89454180Y-52009502D01*
X89564494Y-51950537D01*
X89661185Y-51871185D01*
X89740537Y-51774494D01*
X89799502Y-51664180D01*
X89821513Y-51591620D01*
X89953368Y-51723475D01*
X90196589Y-51885990D01*
X90466842Y-51997932D01*
X90753740Y-52055000D01*
X91046260Y-52055000D01*
X91333158Y-51997932D01*
X91603411Y-51885990D01*
X91846632Y-51723475D01*
X92053475Y-51516632D01*
X92215990Y-51273411D01*
X92327932Y-51003158D01*
X92385000Y-50716260D01*
X92385000Y-50423740D01*
X92327932Y-50136842D01*
X92215990Y-49866589D01*
X92053475Y-49623368D01*
X91846632Y-49416525D01*
X91603411Y-49254010D01*
X91333158Y-49142068D01*
X91046260Y-49085000D01*
X90753740Y-49085000D01*
X90466842Y-49142068D01*
X90196589Y-49254010D01*
X89953368Y-49416525D01*
X89821513Y-49548380D01*
X89799502Y-49475820D01*
X89740537Y-49365506D01*
X89661185Y-49268815D01*
X89564494Y-49189463D01*
X89454180Y-49130498D01*
X89334482Y-49094188D01*
X89210000Y-49081928D01*
X87510000Y-49081928D01*
X87385518Y-49094188D01*
X87265820Y-49130498D01*
X87155506Y-49189463D01*
X87058815Y-49268815D01*
X86979463Y-49365506D01*
X86920498Y-49475820D01*
X86884188Y-49595518D01*
X86871928Y-49720000D01*
X82832501Y-49720000D01*
X82832336Y-49645000D01*
X82951939Y-49645000D01*
X83151898Y-49605226D01*
X83340256Y-49527205D01*
X83509774Y-49413937D01*
X83653937Y-49269774D01*
X83767205Y-49100256D01*
X83845226Y-48911898D01*
X83885000Y-48711939D01*
X83885000Y-48508061D01*
X83845226Y-48308102D01*
X83767205Y-48119744D01*
X83653937Y-47950226D01*
X83509774Y-47806063D01*
X83340256Y-47692795D01*
X83151898Y-47614774D01*
X82951939Y-47575000D01*
X82748061Y-47575000D01*
X82548102Y-47614774D01*
X82359744Y-47692795D01*
X82299239Y-47733223D01*
X82290836Y-36170000D01*
X86851928Y-36170000D01*
X86851928Y-37870000D01*
X86864188Y-37994482D01*
X86900498Y-38114180D01*
X86959463Y-38224494D01*
X87038815Y-38321185D01*
X87135506Y-38400537D01*
X87245820Y-38459502D01*
X87365518Y-38495812D01*
X87490000Y-38508072D01*
X89190000Y-38508072D01*
X89314482Y-38495812D01*
X89434180Y-38459502D01*
X89544494Y-38400537D01*
X89641185Y-38321185D01*
X89720537Y-38224494D01*
X89779502Y-38114180D01*
X89801513Y-38041620D01*
X89933368Y-38173475D01*
X90176589Y-38335990D01*
X90446842Y-38447932D01*
X90733740Y-38505000D01*
X91026260Y-38505000D01*
X91313158Y-38447932D01*
X91583411Y-38335990D01*
X91826632Y-38173475D01*
X92033475Y-37966632D01*
X92195990Y-37723411D01*
X92307932Y-37453158D01*
X92365000Y-37166260D01*
X92365000Y-36873740D01*
X92307932Y-36586842D01*
X92195990Y-36316589D01*
X92033475Y-36073368D01*
X91826632Y-35866525D01*
X91583411Y-35704010D01*
X91313158Y-35592068D01*
X91026260Y-35535000D01*
X90733740Y-35535000D01*
X90446842Y-35592068D01*
X90176589Y-35704010D01*
X89933368Y-35866525D01*
X89801513Y-35998380D01*
X89779502Y-35925820D01*
X89720537Y-35815506D01*
X89641185Y-35718815D01*
X89544494Y-35639463D01*
X89434180Y-35580498D01*
X89314482Y-35544188D01*
X89190000Y-35531928D01*
X87490000Y-35531928D01*
X87365518Y-35544188D01*
X87245820Y-35580498D01*
X87135506Y-35639463D01*
X87038815Y-35718815D01*
X86959463Y-35815506D01*
X86900498Y-35925820D01*
X86864188Y-36045518D01*
X86851928Y-36170000D01*
X82290836Y-36170000D01*
X82290525Y-35743186D01*
X82333937Y-35699774D01*
X82447205Y-35530256D01*
X82525226Y-35341898D01*
X82565000Y-35141939D01*
X82565000Y-34938061D01*
X82525226Y-34738102D01*
X82447205Y-34549744D01*
X82333937Y-34380226D01*
X82189774Y-34236063D01*
X82020256Y-34122795D01*
X81831898Y-34044774D01*
X81631939Y-34005000D01*
X81428061Y-34005000D01*
X81228102Y-34044774D01*
X81039744Y-34122795D01*
X80870226Y-34236063D01*
X80726063Y-34380226D01*
X80612795Y-34549744D01*
X80534774Y-34738102D01*
X80495000Y-34938061D01*
X80495000Y-35141939D01*
X80534774Y-35341898D01*
X80612795Y-35530256D01*
X80726063Y-35699774D01*
X80770527Y-35744238D01*
X80799957Y-76240640D01*
X71880000Y-76240640D01*
X71880000Y-22060000D01*
X86871928Y-22060000D01*
X86871928Y-23760000D01*
X86884188Y-23884482D01*
X86920498Y-24004180D01*
X86979463Y-24114494D01*
X87058815Y-24211185D01*
X87155506Y-24290537D01*
X87265820Y-24349502D01*
X87385518Y-24385812D01*
X87510000Y-24398072D01*
X89210000Y-24398072D01*
X89334482Y-24385812D01*
X89454180Y-24349502D01*
X89564494Y-24290537D01*
X89661185Y-24211185D01*
X89740537Y-24114494D01*
X89799502Y-24004180D01*
X89821513Y-23931620D01*
X89953368Y-24063475D01*
X90196589Y-24225990D01*
X90466842Y-24337932D01*
X90753740Y-24395000D01*
X91046260Y-24395000D01*
X91333158Y-24337932D01*
X91603411Y-24225990D01*
X91846632Y-24063475D01*
X92053475Y-23856632D01*
X92215990Y-23613411D01*
X92327932Y-23343158D01*
X92385000Y-23056260D01*
X92385000Y-22763740D01*
X92327932Y-22476842D01*
X92215990Y-22206589D01*
X92053475Y-21963368D01*
X91846632Y-21756525D01*
X91603411Y-21594010D01*
X91333158Y-21482068D01*
X91046260Y-21425000D01*
X90753740Y-21425000D01*
X90466842Y-21482068D01*
X90196589Y-21594010D01*
X89953368Y-21756525D01*
X89821513Y-21888380D01*
X89799502Y-21815820D01*
X89740537Y-21705506D01*
X89661185Y-21608815D01*
X89564494Y-21529463D01*
X89454180Y-21470498D01*
X89334482Y-21434188D01*
X89210000Y-21421928D01*
X87510000Y-21421928D01*
X87385518Y-21434188D01*
X87265820Y-21470498D01*
X87155506Y-21529463D01*
X87058815Y-21608815D01*
X86979463Y-21705506D01*
X86920498Y-21815820D01*
X86884188Y-21935518D01*
X86871928Y-22060000D01*
X71880000Y-22060000D01*
X71880000Y-21350000D01*
X92650000Y-21350000D01*
X92650001Y-76240640D01*
%TD*%
M02*
