%TF.GenerationSoftware,KiCad,Pcbnew,(5.1.6)-1*%
%TF.CreationDate,2020-08-18T19:37:20-07:00*%
%TF.ProjectId,RGBW Driver,52474257-2044-4726-9976-65722e6b6963,rev?*%
%TF.SameCoordinates,Original*%
%TF.FileFunction,Soldermask,Top*%
%TF.FilePolarity,Negative*%
%FSLAX46Y46*%
G04 Gerber Fmt 4.6, Leading zero omitted, Abs format (unit mm)*
G04 Created by KiCad (PCBNEW (5.1.6)-1) date 2020-08-18 19:37:20*
%MOMM*%
%LPD*%
G01*
G04 APERTURE LIST*
%ADD10C,0.127000*%
%ADD11R,2.600000X1.100000*%
%ADD12R,1.300000X1.000000*%
%ADD13O,1.800000X1.800000*%
%ADD14R,1.800000X1.800000*%
%ADD15R,5.500000X3.000000*%
%ADD16R,1.000000X1.800000*%
%ADD17R,0.800000X1.600000*%
%ADD18R,1.100000X5.300000*%
G04 APERTURE END LIST*
D10*
%TO.C,U1*%
G36*
X89710000Y-31580000D02*
G01*
X89710000Y-32380000D01*
X90710000Y-33380000D01*
X91710000Y-32380000D01*
X91710000Y-31580000D01*
X90710000Y-30580000D01*
X89710000Y-31580000D01*
G37*
X89710000Y-31580000D02*
X89710000Y-32380000D01*
X90710000Y-33380000D01*
X91710000Y-32380000D01*
X91710000Y-31580000D01*
X90710000Y-30580000D01*
X89710000Y-31580000D01*
%TO.C,U2*%
G36*
X89480000Y-44820000D02*
G01*
X89480000Y-45620000D01*
X90480000Y-46620000D01*
X91480000Y-45620000D01*
X91480000Y-44820000D01*
X90480000Y-43820000D01*
X89480000Y-44820000D01*
G37*
X89480000Y-44820000D02*
X89480000Y-45620000D01*
X90480000Y-46620000D01*
X91480000Y-45620000D01*
X91480000Y-44820000D01*
X90480000Y-43820000D01*
X89480000Y-44820000D01*
%TO.C,U3*%
G36*
X89610000Y-58550000D02*
G01*
X89610000Y-59350000D01*
X90610000Y-60350000D01*
X91610000Y-59350000D01*
X91610000Y-58550000D01*
X90610000Y-57550000D01*
X89610000Y-58550000D01*
G37*
X89610000Y-58550000D02*
X89610000Y-59350000D01*
X90610000Y-60350000D01*
X91610000Y-59350000D01*
X91610000Y-58550000D01*
X90610000Y-57550000D01*
X89610000Y-58550000D01*
%TO.C,U4*%
G36*
X89660000Y-71430000D02*
G01*
X89660000Y-72230000D01*
X90660000Y-73230000D01*
X91660000Y-72230000D01*
X91660000Y-71430000D01*
X90660000Y-70430000D01*
X89660000Y-71430000D01*
G37*
X89660000Y-71430000D02*
X89660000Y-72230000D01*
X90660000Y-73230000D01*
X91660000Y-72230000D01*
X91660000Y-71430000D01*
X90660000Y-70430000D01*
X89660000Y-71430000D01*
%TD*%
D11*
%TO.C,C1*%
X86460000Y-25890000D03*
X86460000Y-28890000D03*
%TD*%
D12*
%TO.C,D1*%
X86930000Y-34060000D03*
X86930000Y-30760000D03*
%TD*%
D13*
%TO.C,J5*%
X75910000Y-77920000D03*
D14*
X73370000Y-77920000D03*
%TD*%
D13*
%TO.C,J1*%
X91100000Y-22910000D03*
D14*
X88560000Y-22910000D03*
%TD*%
D15*
%TO.C,L1*%
X78160000Y-32960000D03*
X78160000Y-23060000D03*
%TD*%
D16*
%TO.C,R1*%
X92200000Y-26260000D03*
X89300000Y-26260000D03*
%TD*%
D17*
%TO.C,U1*%
X89210000Y-33830000D03*
X92210000Y-33830000D03*
X89210000Y-30130000D03*
X92210000Y-30130000D03*
D18*
X90710000Y-31980000D03*
%TD*%
D11*
%TO.C,C2*%
X86720000Y-40000000D03*
X86720000Y-43000000D03*
%TD*%
%TO.C,C3*%
X86720000Y-53160000D03*
X86720000Y-56160000D03*
%TD*%
%TO.C,C4*%
X86640000Y-69970000D03*
X86640000Y-66970000D03*
%TD*%
D12*
%TO.C,D2*%
X86640000Y-47740000D03*
X86640000Y-44440000D03*
%TD*%
%TO.C,D3*%
X86720000Y-57950000D03*
X86720000Y-61250000D03*
%TD*%
%TO.C,D4*%
X86570000Y-74930000D03*
X86570000Y-71630000D03*
%TD*%
D13*
%TO.C,J2*%
X90750000Y-37520000D03*
D14*
X88210000Y-37520000D03*
%TD*%
D13*
%TO.C,J3*%
X90820000Y-50960000D03*
D14*
X88280000Y-50960000D03*
%TD*%
%TO.C,J4*%
X88360000Y-64700000D03*
D13*
X90900000Y-64700000D03*
%TD*%
%TO.C,J6*%
X90950000Y-78070000D03*
X88410000Y-78070000D03*
X85870000Y-78070000D03*
X83330000Y-78070000D03*
D14*
X80790000Y-78070000D03*
%TD*%
D15*
%TO.C,L2*%
X78170000Y-36740000D03*
X78170000Y-46640000D03*
%TD*%
%TO.C,L3*%
X78170000Y-60310000D03*
X78170000Y-50410000D03*
%TD*%
%TO.C,L4*%
X78170000Y-73990000D03*
X78170000Y-64090000D03*
%TD*%
D16*
%TO.C,R2*%
X91820000Y-40980000D03*
X88920000Y-40980000D03*
%TD*%
%TO.C,R3*%
X89070000Y-54410000D03*
X91970000Y-54410000D03*
%TD*%
%TO.C,R4*%
X91990000Y-67690000D03*
X89090000Y-67690000D03*
%TD*%
D17*
%TO.C,U2*%
X88980000Y-47070000D03*
X91980000Y-47070000D03*
X88980000Y-43370000D03*
X91980000Y-43370000D03*
D18*
X90480000Y-45220000D03*
%TD*%
D17*
%TO.C,U3*%
X89110000Y-60800000D03*
X92110000Y-60800000D03*
X89110000Y-57100000D03*
X92110000Y-57100000D03*
D18*
X90610000Y-58950000D03*
%TD*%
%TO.C,U4*%
X90660000Y-71830000D03*
D17*
X92160000Y-69980000D03*
X89160000Y-69980000D03*
X92160000Y-73680000D03*
X89160000Y-73680000D03*
%TD*%
M02*
