M48
; DRILL file {KiCad (5.1.6)-1} date 08/18/20 19:37:15
; FORMAT={-:-/ absolute / inch / decimal}
; #@! TF.CreationDate,2020-08-18T19:37:15-07:00
; #@! TF.GenerationSoftware,Kicad,Pcbnew,(5.1.6)-1
FMAT,2
INCH
T1C0.0157
T2C0.0394
%
G90
G05
T1
X3.1813Y-2.6348
X3.182Y-2.1001
X3.1827Y-1.574
X3.1846Y-1.0224
X3.3811Y-1.0772
X3.3862Y-2.6929
X3.3957Y-1.6327
X3.3996Y-2.1524
X3.4882Y-1.7843
X3.4937Y-2.8248
X3.4945Y-2.3224
X3.4957Y-1.2594
X3.6224Y-1.9118
X3.6283Y-2.4559
X3.6327Y-1.3882
T2
X3.4787Y-2.5472
X3.5787Y-2.5472
X3.4756Y-2.0063
X3.5756Y-2.0063
X3.4866Y-0.902
X3.5866Y-0.902
X2.8886Y-3.0677
X2.9886Y-3.0677
X3.1807Y-3.0736
X3.2807Y-3.0736
X3.3807Y-3.0736
X3.4807Y-3.0736
X3.5807Y-3.0736
X3.4728Y-1.4772
X3.5728Y-1.4772
T0
M30
